<?xml version="1.0" encoding="UTF-8"?>
<svg width="50px" height="50px" viewBox="0 0 50 50" version="1.1" xmlns="http://www.w3.org/2000/svg" xmlns:xlink="http://www.w3.org/1999/xlink">
    <!-- Generator: Sketch 48 (47235) - http://www.bohemiancoding.com/sketch -->
    <title>Rectangle 4</title>
    <desc>Created with Sketch.</desc>
    <defs>
        <linearGradient x1="50%" y1="0%" x2="50%" y2="100%" id="linearGradient-1">
            <stop stop-color="#D54242" offset="0%"></stop>
            <stop stop-color="#FF6A86" offset="100%"></stop>
        </linearGradient>
    </defs>
    <g id="01-Home-Function" stroke="none" stroke-width="1" fill="none" fill-rule="evenodd" transform="translate(-119.000000, -746.000000)">
        <g id="iphone-x-white-bg">
            <rect id="bg" x="0" y="0" width="375" height="812"></rect>
            <g id="Bars/Home-Indicator/Home-Indicator---On-Light" transform="translate(0.000000, 778.000000)" fill="#000000" fill-rule="evenodd">
                <rect id="Rectangle-24" x="121" y="20" width="134" height="5" rx="2.5"></rect>
            </g>
            <g id="Bars/Status-Bar/Light-Status-Bar">
                <g id="Battery" stroke-width="1" fill-rule="evenodd" transform="translate(336.000000, 17.000000)">
                    <rect id="Border" stroke="#000000" opacity="0.35" x="0.5" y="0.833333333" width="21" height="10.3333333" rx="2.66666675"></rect>
                    <path d="M23,4 L23,8 C23.8047311,7.66122348 24.328038,6.87313328 24.328038,6 C24.328038,5.12686672 23.8047311,4.33877652 23,4" id="Cap" fill="#000000" fill-rule="nonzero" opacity="0.4"></path>
                    <rect id="Capacity" fill="#000000" fill-rule="nonzero" x="2" y="2.33333333" width="18" height="7.33333333" rx="1.33333337"></rect>
                </g>
                <path d="M323.330333,19.608 C325.546226,19.6080971 327.677386,20.4595347 329.283333,21.9863333 C329.404265,22.1042079 329.597562,22.102721 329.716667,21.983 L330.872667,20.8163333 C330.932975,20.7556112 330.966599,20.6733595 330.966098,20.5877792 C330.965598,20.5021988 330.931014,20.420346 330.87,20.3603333 C326.654902,16.3207858 320.005098,16.3207858 315.79,20.3603333 C315.728941,20.4203015 315.694297,20.5021294 315.693734,20.5877099 C315.693171,20.6732903 315.726736,20.755567 315.787,20.8163333 L316.943333,21.983 C317.062362,22.1029017 317.255808,22.1043897 317.376667,21.9863333 C318.982819,20.4594344 321.114223,19.6079944 323.330333,19.608 Z M323.330333,23.4036667 C324.547823,23.4035921 325.721865,23.8561245 326.624333,24.6733333 C326.746397,24.7893139 326.938678,24.7867994 327.057667,24.6676667 L328.212333,23.501 C328.273141,23.439805 328.30688,23.3567887 328.306003,23.2705239 C328.305126,23.1842592 328.269706,23.101946 328.207667,23.042 C325.459468,20.4856177 321.203532,20.4856177 318.455333,23.042 C318.393256,23.1019453 318.357837,23.1842997 318.357023,23.2705923 C318.356208,23.356885 318.390065,23.4398934 318.451,23.501 L319.605333,24.6676667 C319.724322,24.7867994 319.916603,24.7893139 320.038667,24.6733333 C320.940539,23.8566645 322.113649,23.4041708 323.330333,23.4036667 Z M325.549333,26.188 C325.611087,26.127394 325.645095,26.0439919 325.643328,25.957485 C325.641561,25.8709782 325.604176,25.7890342 325.54,25.731 C324.264428,24.6521162 322.396238,24.6521162 321.120667,25.731 C321.056446,25.7889875 321.019,25.8709057 321.01717,25.957413 C321.01534,26.0439203 321.049289,26.1273487 321.111,26.188 L323.108667,28.2036667 C323.167217,28.2629057 323.247042,28.2962443 323.330333,28.2962443 C323.413624,28.2962443 323.49345,28.2629057 323.552,28.2036667 L325.549333,26.188 Z" id="Wifi" fill="#000000" fill-rule="nonzero"></path>
                <path d="M294.666667,24.3333333 L295.666667,24.3333333 C296.218951,24.3333333 296.666667,24.7810486 296.666667,25.3333333 L296.666667,27.3333333 C296.666667,27.8856181 296.218951,28.3333333 295.666667,28.3333333 L294.666667,28.3333333 C294.114382,28.3333333 293.666667,27.8856181 293.666667,27.3333333 L293.666667,25.3333333 C293.666667,24.7810486 294.114382,24.3333333 294.666667,24.3333333 Z M299.333333,22.3333333 L300.333333,22.3333333 C300.885618,22.3333333 301.333333,22.7810486 301.333333,23.3333333 L301.333333,27.3333333 C301.333333,27.8856181 300.885618,28.3333333 300.333333,28.3333333 L299.333333,28.3333333 C298.781049,28.3333333 298.333333,27.8856181 298.333333,27.3333333 L298.333333,23.3333333 C298.333333,22.7810486 298.781049,22.3333333 299.333333,22.3333333 Z M304,20 L305,20 C305.552285,20 306,20.4477153 306,21 L306,27.3333333 C306,27.8856181 305.552285,28.3333333 305,28.3333333 L304,28.3333333 C303.447715,28.3333333 303,27.8856181 303,27.3333333 L303,21 C303,20.4477153 303.447715,20 304,20 Z M308.666667,17.6666667 L309.666667,17.6666667 C310.218951,17.6666667 310.666667,18.1143819 310.666667,18.6666667 L310.666667,27.3333333 C310.666667,27.8856181 310.218951,28.3333333 309.666667,28.3333333 L308.666667,28.3333333 C308.114382,28.3333333 307.666667,27.8856181 307.666667,27.3333333 L307.666667,18.6666667 C307.666667,18.1143819 308.114382,17.6666667 308.666667,17.6666667 Z" id="Cellular-Connection" fill="#000000" fill-rule="nonzero"></path>
                <g id="Bars/_/Time-Black" transform="translate(21.000000, 9.000000)" fill="#000000" font-family=".AppleSystemUIFont" font-size="14" font-weight="normal" letter-spacing="-0.280000001">
                    <text id="↳-Time">
                        <tspan x="13.4131641" y="21">9:4</tspan>
                        <tspan x="34.2089062" y="21">1</tspan>
                    </text>
                </g>
            </g>
        </g>
        <g id="Group" transform="translate(19.000000, 706.000000)">
            <g id="记账" transform="translate(99.000000, 40.000000)">
                <rect id="Rectangle-4" fill="url(#linearGradient-1)" x="1" y="0" width="50" height="50" rx="22"></rect>
                <g id="news-icon" transform="translate(15.000000, 14.000000)">
                    <rect id="icon_bg" x="0" y="0" width="22" height="22"></rect>
                    <g id="exchange-xy" transform="translate(1.000000, 0.000000)" fill="#FFFFFF" fill-rule="nonzero">
                        <path d="M6.31363211,21.742573 C6.10172575,21.9576187 5.7281427,21.9544794 5.51780602,21.7441427 C5.29648161,21.5228183 5.29648161,21.1665017 5.51623634,20.9451773 L7.7624437,18.6911215 L7.00272018,18.6879822 C2.98748718,18.6722854 1.44763434,16.9001204 0.885690078,15.8468673 C0.560767001,15.2394025 0.452459309,14.6884459 0.439901895,14.3227113 C1.41938016,16.3868361 3.77703456,17.5609543 7.00899889,17.5609543 L7.77657079,17.5609543 L5.51780602,15.3053289 C5.29805128,15.0840045 5.29805128,14.7261182 5.51780602,14.5079331 C5.73128205,14.2928874 6.10486511,14.2960268 6.31520178,14.5079331 L9.5346087,17.722631 C9.63977703,17.8309387 9.69942475,17.9722096 9.69942475,18.1228986 C9.69942475,18.2735875 9.63977703,18.4179978 9.5346087,18.5215964 L6.31363211,21.742573 Z M11.3774091,3.40247046 C11.2722408,3.5076388 11.2141628,3.65204905 11.2141628,3.80116834 C11.2141628,3.95028763 11.2722408,4.09469788 11.3789788,4.20300557 L14.5983857,7.41770346 C14.8102921,7.62804013 15.1807358,7.63117949 15.3957815,7.41770346 C15.6139666,7.19951839 15.6139666,6.84163211 15.3926421,6.62030769 L13.135447,4.36468227 L13.9014493,4.36468227 C17.1302742,4.36468227 19.4926377,5.54037012 20.4689766,7.60449498 C20.4595585,7.23876031 20.3496812,6.68780379 20.0278974,6.08033891 C19.4643835,5.02865552 17.9213913,3.25492085 13.9092977,3.2376544 L13.1495741,3.23451505 L15.3942118,0.980459309 C15.6155362,0.760704571 15.6155362,0.40438796 15.3942118,0.183063545 C15.1823055,-0.0272731327 14.8118618,-0.0304124861 14.5999554,0.183063545 L11.3774091,3.40247046 Z M0.19503233,9.63251728 C0.022367893,9.87424749 -0.0341404682,10.1034203 0.0207982163,10.3200357 C0.0757369008,10.5382207 0.202880713,10.7108852 0.405369008,10.8411683 C0.888829431,11.1629521 1.29066667,11.0985953 1.61402007,10.6449588 L8.12346934,1.53769454 C8.26317057,1.33677592 8.31967893,1.13271795 8.28671572,0.925520624 C8.26003122,0.719892977 8.11248161,0.534671126 7.85191527,0.374564103 C7.58977926,0.212887402 7.34804905,0.170506132 7.12672464,0.245850613 C6.90540022,0.321195095 6.69663322,0.495429208 6.50670234,0.766983278 L0.19503233,9.63251728 Z M2.0833534,0.57077369 C1.90911929,0.340031215 1.73488517,0.216026756 1.54652397,0.200329989 C1.35816276,0.186202899 1.13683835,0.269395764 0.874702341,0.449908584 C0.694189521,0.58019175 0.571754738,0.759134894 0.512107023,0.986738016 C0.449319955,1.21277146 0.474434783,1.4121204 0.585881828,1.58321516 L7.0953311,10.629262 C7.24758974,10.8411683 7.41397547,10.9792999 7.600767,11.0373779 C7.78755853,11.0985953 8.02144036,11.0373779 8.30398216,10.8568651 C8.56611817,10.6857703 8.71523746,10.5068272 8.74820067,10.3200357 C8.78744259,10.1332441 8.7529097,9.96999777 8.65245039,9.82872687 L2.0833534,0.57077369 Z M17.820932,17.3192241 L20.4909521,12.4249721 C20.6008294,12.2224838 20.6541984,12.032553 20.6510591,11.8504705 C20.6479197,11.6699576 20.5254849,11.4925842 20.2806154,11.3214894 C20.219398,11.2822475 20.1330658,11.2445753 20.0169097,11.2084727 C19.903893,11.1739398 19.7845975,11.1613824 19.6558841,11.1723701 C19.5303099,11.1817882 19.4047358,11.2147514 19.2854404,11.2696901 C19.1661449,11.3246288 19.0703946,11.4125307 18.9997592,11.5333958 L16.8697079,15.6412397 L14.6658818,11.4721784 C14.5560045,11.2712598 14.3802007,11.1723701 14.1447492,11.1723701 C13.9092977,11.1723701 13.6911126,11.2320178 13.4886243,11.3528829 C13.286136,11.4721784 13.1668406,11.6479822 13.1244593,11.8740156 C13.0852174,12.1016187 13.1150412,12.304107 13.2170702,12.4861895 L15.8902297,17.3192241 L15.8902297,21.2151616 C15.8902297,21.3956745 15.9640045,21.5746176 16.1084147,21.7441427 C16.252825,21.9136678 16.4992642,22 16.8524415,22 C17.2056187,22 17.456767,21.9199465 17.6011773,21.7582698 C17.7455875,21.5981628 17.8225017,21.4176499 17.8225017,21.2151616 L17.8225017,17.3192241 L17.820932,17.3192241 Z" id="Shape"></path>
                    </g>
                </g>
            </g>
        </g>
    </g>
</svg>