<?xml version="1.0" encoding="UTF-8"?>
<svg width="50px" height="51px" viewBox="0 0 50 51" version="1.1" xmlns="http://www.w3.org/2000/svg" xmlns:xlink="http://www.w3.org/1999/xlink">
    <!-- Generator: Sketch 48 (47235) - http://www.bohemiancoding.com/sketch -->
    <title>Rectangle 45</title>
    <desc>Created with Sketch.</desc>
    <defs>
        <linearGradient x1="50%" y1="0%" x2="50%" y2="100%" id="linearGradient-1">
            <stop stop-color="#B7D8EF" offset="0%"></stop>
            <stop stop-color="#255B7E" offset="100%"></stop>
        </linearGradient>
    </defs>
    <g id="01-Home-Function" stroke="none" stroke-width="1" fill="none" fill-rule="evenodd" transform="translate(-25.000000, -525.000000)">
        <g id="iphone-x-white-bg">
            <rect id="bg" x="0" y="0" width="375" height="812"></rect>
            <g id="Bars/Home-Indicator/Home-Indicator---On-Light" transform="translate(0.000000, 778.000000)" fill="#000000" fill-rule="evenodd">
                <rect id="Rectangle-24" x="121" y="20" width="134" height="5" rx="2.5"></rect>
            </g>
            <g id="Bars/Status-Bar/Light-Status-Bar">
                <g id="Battery" stroke-width="1" fill-rule="evenodd" transform="translate(336.000000, 17.000000)">
                    <rect id="Border" stroke="#000000" opacity="0.35" x="0.5" y="0.833333333" width="21" height="10.3333333" rx="2.66666675"></rect>
                    <path d="M23,4 L23,8 C23.8047311,7.66122348 24.328038,6.87313328 24.328038,6 C24.328038,5.12686672 23.8047311,4.33877652 23,4" id="Cap" fill="#000000" fill-rule="nonzero" opacity="0.4"></path>
                    <rect id="Capacity" fill="#000000" fill-rule="nonzero" x="2" y="2.33333333" width="18" height="7.33333333" rx="1.33333337"></rect>
                </g>
                <path d="M323.330333,19.608 C325.546226,19.6080971 327.677386,20.4595347 329.283333,21.9863333 C329.404265,22.1042079 329.597562,22.102721 329.716667,21.983 L330.872667,20.8163333 C330.932975,20.7556112 330.966599,20.6733595 330.966098,20.5877792 C330.965598,20.5021988 330.931014,20.420346 330.87,20.3603333 C326.654902,16.3207858 320.005098,16.3207858 315.79,20.3603333 C315.728941,20.4203015 315.694297,20.5021294 315.693734,20.5877099 C315.693171,20.6732903 315.726736,20.755567 315.787,20.8163333 L316.943333,21.983 C317.062362,22.1029017 317.255808,22.1043897 317.376667,21.9863333 C318.982819,20.4594344 321.114223,19.6079944 323.330333,19.608 Z M323.330333,23.4036667 C324.547823,23.4035921 325.721865,23.8561245 326.624333,24.6733333 C326.746397,24.7893139 326.938678,24.7867994 327.057667,24.6676667 L328.212333,23.501 C328.273141,23.439805 328.30688,23.3567887 328.306003,23.2705239 C328.305126,23.1842592 328.269706,23.101946 328.207667,23.042 C325.459468,20.4856177 321.203532,20.4856177 318.455333,23.042 C318.393256,23.1019453 318.357837,23.1842997 318.357023,23.2705923 C318.356208,23.356885 318.390065,23.4398934 318.451,23.501 L319.605333,24.6676667 C319.724322,24.7867994 319.916603,24.7893139 320.038667,24.6733333 C320.940539,23.8566645 322.113649,23.4041708 323.330333,23.4036667 Z M325.549333,26.188 C325.611087,26.127394 325.645095,26.0439919 325.643328,25.957485 C325.641561,25.8709782 325.604176,25.7890342 325.54,25.731 C324.264428,24.6521162 322.396238,24.6521162 321.120667,25.731 C321.056446,25.7889875 321.019,25.8709057 321.01717,25.957413 C321.01534,26.0439203 321.049289,26.1273487 321.111,26.188 L323.108667,28.2036667 C323.167217,28.2629057 323.247042,28.2962443 323.330333,28.2962443 C323.413624,28.2962443 323.49345,28.2629057 323.552,28.2036667 L325.549333,26.188 Z" id="Wifi" fill="#000000" fill-rule="nonzero"></path>
                <path d="M294.666667,24.3333333 L295.666667,24.3333333 C296.218951,24.3333333 296.666667,24.7810486 296.666667,25.3333333 L296.666667,27.3333333 C296.666667,27.8856181 296.218951,28.3333333 295.666667,28.3333333 L294.666667,28.3333333 C294.114382,28.3333333 293.666667,27.8856181 293.666667,27.3333333 L293.666667,25.3333333 C293.666667,24.7810486 294.114382,24.3333333 294.666667,24.3333333 Z M299.333333,22.3333333 L300.333333,22.3333333 C300.885618,22.3333333 301.333333,22.7810486 301.333333,23.3333333 L301.333333,27.3333333 C301.333333,27.8856181 300.885618,28.3333333 300.333333,28.3333333 L299.333333,28.3333333 C298.781049,28.3333333 298.333333,27.8856181 298.333333,27.3333333 L298.333333,23.3333333 C298.333333,22.7810486 298.781049,22.3333333 299.333333,22.3333333 Z M304,20 L305,20 C305.552285,20 306,20.4477153 306,21 L306,27.3333333 C306,27.8856181 305.552285,28.3333333 305,28.3333333 L304,28.3333333 C303.447715,28.3333333 303,27.8856181 303,27.3333333 L303,21 C303,20.4477153 303.447715,20 304,20 Z M308.666667,17.6666667 L309.666667,17.6666667 C310.218951,17.6666667 310.666667,18.1143819 310.666667,18.6666667 L310.666667,27.3333333 C310.666667,27.8856181 310.218951,28.3333333 309.666667,28.3333333 L308.666667,28.3333333 C308.114382,28.3333333 307.666667,27.8856181 307.666667,27.3333333 L307.666667,18.6666667 C307.666667,18.1143819 308.114382,17.6666667 308.666667,17.6666667 Z" id="Cellular-Connection" fill="#000000" fill-rule="nonzero"></path>
                <g id="Bars/_/Time-Black" transform="translate(21.000000, 9.000000)" fill="#000000" font-family=".AppleSystemUIFont" font-size="14" font-weight="normal" letter-spacing="-0.280000001">
                    <text id="↳-Time">
                        <tspan x="13.4131641" y="21">9:4</tspan>
                        <tspan x="34.2089062" y="21">1</tspan>
                    </text>
                </g>
            </g>
        </g>
        <rect id="Rectangle-4" fill="url(#linearGradient-1)" x="25" y="525.666667" width="50" height="50" rx="22"></rect>
        <g id="news-icon" transform="translate(39.000000, 539.666667)">
            <rect id="icon_bg" x="0" y="0" width="22" height="22"></rect>
            <g id="request" transform="translate(1.000000, 0.000000)" fill="#FFFFFF" fill-rule="nonzero">
                <path d="M3.6833713,5.50177904 C4.33975617,5.50420607 4.9473219,5.15542189 5.27621696,4.58737696 C5.60511201,4.01933204 5.60511201,3.31877046 5.27621696,2.75072554 C4.9473219,2.18268062 4.33975617,1.83389644 3.6833713,1.83632346 C2.6738291,1.84005631 1.85740761,2.65950216 1.85740761,3.66905125 C1.85740761,4.67860035 2.6738291,5.4980462 3.6833713,5.50177904 Z M15.5961708,14.7809431 L15.5961708,5.50726651 C15.6006428,5.26238483 15.5057119,5.02613865 15.3330409,4.85243841 C15.1603699,4.67873817 14.9246921,4.58240488 14.6797882,4.58542141 L12.8507312,4.58542141 L12.8507312,6.16157859 C12.8507312,6.65091572 12.5080023,6.84701139 12.0846401,6.58311162 L8.11860137,4.10157175 C7.71538497,3.85050114 7.69706834,3.41062642 8.11860137,3.14672665 L12.084615,0.663357631 C12.4878314,0.412287016 12.8507312,0.590066059 12.8507312,1.08489066 L12.8507312,2.75268109 L14.6797882,2.75268109 C16.2046287,2.75268109 17.4288861,3.97145103 17.4288861,5.50729157 L17.4288861,14.7809431 C19.216093,15.2423912 20.3813726,16.9607862 20.1487949,18.7918925 C19.9162172,20.6229989 18.3583461,21.9955133 16.5125285,21.9955133 C14.6667108,21.9955133 13.1088397,20.6229989 12.876262,18.7918925 C12.6436843,16.9607862 13.8089639,15.2423912 15.5961708,14.7809431 Z M2.76701367,7.21905695 C0.979806769,6.75760884 -0.185472878,5.03921382 0.0471048394,3.20810747 C0.279682556,1.37700112 1.83755363,0.00448670846 3.6833713,0.00448670846 C5.52918896,0.00448670846 7.08706004,1.37700112 7.31963776,3.20810747 C7.55221547,5.03921382 6.38693583,6.75760884 4.59972893,7.21905695 L4.59972893,14.7809431 C6.38693583,15.2423912 7.55221547,16.9607862 7.31963776,18.7918925 C7.08706004,20.6229989 5.52918896,21.9955133 3.6833713,21.9955133 C1.83755363,21.9955133 0.279682556,20.6229989 0.0471048394,18.7918925 C-0.185472878,16.9607862 0.979806769,15.2423912 2.76701367,14.7809431 L2.76701367,7.21905695 Z M16.5125285,20.1636765 C17.1689133,20.1661036 17.7764791,19.8173194 18.1053741,19.2492745 C18.4342692,18.6812295 18.4342692,17.980668 18.1053741,17.412623 C17.7764791,16.8445781 17.1689133,16.4957939 16.5125285,16.498221 C15.5029863,16.5019538 14.6865648,17.3213997 14.6865648,18.3309487 C14.6865648,19.3404978 15.5029863,20.1599437 16.5125285,20.1636765 Z M3.6833713,20.1636765 C4.33975617,20.1661036 4.9473219,19.8173194 5.27621696,19.2492745 C5.60511201,18.6812295 5.60511201,17.980668 5.27621696,17.412623 C4.9473219,16.8445781 4.33975617,16.4957939 3.6833713,16.498221 C2.6738291,16.5019538 1.85740761,17.3213997 1.85740761,18.3309487 C1.85740761,19.3404978 2.6738291,20.1599437 3.6833713,20.1636765 Z" id="Shape"></path>
            </g>
        </g>
    </g>
</svg>