<?xml version="1.0" encoding="UTF-8"?>
<svg width="50px" height="51px" viewBox="0 0 50 51" version="1.1" xmlns="http://www.w3.org/2000/svg" xmlns:xlink="http://www.w3.org/1999/xlink">
    <!-- Generator: Sketch 48 (47235) - http://www.bohemiancoding.com/sketch -->
    <title>Rectangle 42</title>
    <desc>Created with Sketch.</desc>
    <defs>
        <linearGradient x1="50%" y1="0%" x2="50%" y2="100%" id="linearGradient-1">
            <stop stop-color="#F056C8" offset="0%"></stop>
            <stop stop-color="#B72E92" offset="100%"></stop>
        </linearGradient>
    </defs>
    <g id="01-Home-Function" stroke="none" stroke-width="1" fill="none" fill-rule="evenodd" transform="translate(-125.000000, -419.000000)">
        <g id="iphone-x-white-bg">
            <rect id="bg" x="0" y="0" width="375" height="812"></rect>
            <g id="Bars/Home-Indicator/Home-Indicator---On-Light" transform="translate(0.000000, 778.000000)" fill="#000000" fill-rule="evenodd">
                <rect id="Rectangle-24" x="121" y="20" width="134" height="5" rx="2.5"></rect>
            </g>
            <g id="Bars/Status-Bar/Light-Status-Bar">
                <g id="Battery" stroke-width="1" fill-rule="evenodd" transform="translate(336.000000, 17.000000)">
                    <rect id="Border" stroke="#000000" opacity="0.35" x="0.5" y="0.833333333" width="21" height="10.3333333" rx="2.66666675"></rect>
                    <path d="M23,4 L23,8 C23.8047311,7.66122348 24.328038,6.87313328 24.328038,6 C24.328038,5.12686672 23.8047311,4.33877652 23,4" id="Cap" fill="#000000" fill-rule="nonzero" opacity="0.4"></path>
                    <rect id="Capacity" fill="#000000" fill-rule="nonzero" x="2" y="2.33333333" width="18" height="7.33333333" rx="1.33333337"></rect>
                </g>
                <path d="M323.330333,19.608 C325.546226,19.6080971 327.677386,20.4595347 329.283333,21.9863333 C329.404265,22.1042079 329.597562,22.102721 329.716667,21.983 L330.872667,20.8163333 C330.932975,20.7556112 330.966599,20.6733595 330.966098,20.5877792 C330.965598,20.5021988 330.931014,20.420346 330.87,20.3603333 C326.654902,16.3207858 320.005098,16.3207858 315.79,20.3603333 C315.728941,20.4203015 315.694297,20.5021294 315.693734,20.5877099 C315.693171,20.6732903 315.726736,20.755567 315.787,20.8163333 L316.943333,21.983 C317.062362,22.1029017 317.255808,22.1043897 317.376667,21.9863333 C318.982819,20.4594344 321.114223,19.6079944 323.330333,19.608 Z M323.330333,23.4036667 C324.547823,23.4035921 325.721865,23.8561245 326.624333,24.6733333 C326.746397,24.7893139 326.938678,24.7867994 327.057667,24.6676667 L328.212333,23.501 C328.273141,23.439805 328.30688,23.3567887 328.306003,23.2705239 C328.305126,23.1842592 328.269706,23.101946 328.207667,23.042 C325.459468,20.4856177 321.203532,20.4856177 318.455333,23.042 C318.393256,23.1019453 318.357837,23.1842997 318.357023,23.2705923 C318.356208,23.356885 318.390065,23.4398934 318.451,23.501 L319.605333,24.6676667 C319.724322,24.7867994 319.916603,24.7893139 320.038667,24.6733333 C320.940539,23.8566645 322.113649,23.4041708 323.330333,23.4036667 Z M325.549333,26.188 C325.611087,26.127394 325.645095,26.0439919 325.643328,25.957485 C325.641561,25.8709782 325.604176,25.7890342 325.54,25.731 C324.264428,24.6521162 322.396238,24.6521162 321.120667,25.731 C321.056446,25.7889875 321.019,25.8709057 321.01717,25.957413 C321.01534,26.0439203 321.049289,26.1273487 321.111,26.188 L323.108667,28.2036667 C323.167217,28.2629057 323.247042,28.2962443 323.330333,28.2962443 C323.413624,28.2962443 323.49345,28.2629057 323.552,28.2036667 L325.549333,26.188 Z" id="Wifi" fill="#000000" fill-rule="nonzero"></path>
                <path d="M294.666667,24.3333333 L295.666667,24.3333333 C296.218951,24.3333333 296.666667,24.7810486 296.666667,25.3333333 L296.666667,27.3333333 C296.666667,27.8856181 296.218951,28.3333333 295.666667,28.3333333 L294.666667,28.3333333 C294.114382,28.3333333 293.666667,27.8856181 293.666667,27.3333333 L293.666667,25.3333333 C293.666667,24.7810486 294.114382,24.3333333 294.666667,24.3333333 Z M299.333333,22.3333333 L300.333333,22.3333333 C300.885618,22.3333333 301.333333,22.7810486 301.333333,23.3333333 L301.333333,27.3333333 C301.333333,27.8856181 300.885618,28.3333333 300.333333,28.3333333 L299.333333,28.3333333 C298.781049,28.3333333 298.333333,27.8856181 298.333333,27.3333333 L298.333333,23.3333333 C298.333333,22.7810486 298.781049,22.3333333 299.333333,22.3333333 Z M304,20 L305,20 C305.552285,20 306,20.4477153 306,21 L306,27.3333333 C306,27.8856181 305.552285,28.3333333 305,28.3333333 L304,28.3333333 C303.447715,28.3333333 303,27.8856181 303,27.3333333 L303,21 C303,20.4477153 303.447715,20 304,20 Z M308.666667,17.6666667 L309.666667,17.6666667 C310.218951,17.6666667 310.666667,18.1143819 310.666667,18.6666667 L310.666667,27.3333333 C310.666667,27.8856181 310.218951,28.3333333 309.666667,28.3333333 L308.666667,28.3333333 C308.114382,28.3333333 307.666667,27.8856181 307.666667,27.3333333 L307.666667,18.6666667 C307.666667,18.1143819 308.114382,17.6666667 308.666667,17.6666667 Z" id="Cellular-Connection" fill="#000000" fill-rule="nonzero"></path>
                <g id="Bars/_/Time-Black" transform="translate(21.000000, 9.000000)" fill="#000000" font-family=".AppleSystemUIFont" font-size="14" font-weight="normal" letter-spacing="-0.280000001">
                    <text id="↳-Time">
                        <tspan x="13.4131641" y="21">9:4</tspan>
                        <tspan x="34.2089062" y="21">1</tspan>
                    </text>
                </g>
            </g>
        </g>
        <rect id="Rectangle-4" fill="url(#linearGradient-1)" x="125" y="419.666667" width="50" height="50" rx="22"></rect>
        <g id="news-icon" transform="translate(139.000000, 433.666667)">
            <rect id="icon_bg" x="0" y="0" width="22" height="22"></rect>
            <g id="expensesRecord" fill="#FFFFFF" fill-rule="nonzero" stroke="#FFFFFF" stroke-width="0.5">
                <path d="M19.4710963,8.56611296 L18.2529347,8.56611296 L18.2529347,7.93754153 C18.2529347,6.01040975 18.255371,4.08084164 18.2529347,2.15370986 C18.2529347,1.42037652 18.0945736,1.24983389 17.3904762,1.24983389 C12.2912514,1.24739756 7.1944629,1.24739756 2.0952381,1.24983389 C1.42281285,1.24983389 1.24496124,1.43012182 1.24496124,2.11716501 C1.24252492,7.69634551 1.24252492,13.2779623 1.24496124,18.8595792 C1.24496124,19.5393134 1.42281285,19.7049834 2.10985604,19.7049834 C4.42679956,19.7074197 6.74374308,19.7049834 9.06312292,19.7049834 L9.71118494,19.7049834 L9.71118494,20.8939092 C9.52846069,20.9060908 9.33599114,20.9280177 9.14108527,20.9280177 C6.7875969,20.930454 4.4316722,20.9328904 2.07818383,20.9280177 C0.682170543,20.9255814 0.0170542636,20.2458472 0.0170542636,18.8327796 L0.0170542636,2.09036545 C0.0170542636,0.70166113 0.711406423,0.0170542636 2.10985604,0.0170542636 L17.4050941,0.0170542636 C18.8059801,0.0170542636 19.4710963,0.687043189 19.4735327,2.10011074 C19.4735327,4.23433001 19.4710963,6.36367663 19.4710963,8.56611296 Z" id="Shape"></path>
                <path d="M21.7320044,15.4292359 L20.5796235,15.4292359 C20.4602436,13.7262458 19.7829457,12.3009967 18.3552602,11.2972315 C17.4635659,10.66866 16.4598007,10.3616833 15.3780731,10.3860465 C13.027021,10.4372093 11.082835,12.0232558 10.5200443,14.3085271 C9.9889258,16.4646733 10.9732004,18.7426357 12.9246955,19.875526 C14.8420819,20.9889258 17.3076412,20.7233666 18.9229236,19.159247 C18.3528239,18.6744186 17.7827243,18.1895903 17.2101883,17.7047619 C17.2540421,17.6316722 17.2978959,17.5561462 17.3417497,17.4830565 L21.6662237,17.4830565 L21.6662237,21.9805094 C21.0303433,21.2666667 20.4821705,20.6502769 19.9096346,20.0046512 C18.3576966,21.359247 16.6912514,21.9634551 14.7860465,21.758804 C13.2584718,21.5955703 11.9526024,20.9426357 10.8854928,19.8292359 C8.86821705,17.7242525 8.56854928,14.4815061 10.1594684,12.0354374 C11.7576966,9.57962348 14.8250277,8.53444075 17.5732004,9.5089701 C20.0801772,10.4006645 21.9902547,13.1025471 21.7320044,15.4292359 Z M7.80354374,12.86866 L6.58538206,12.86866 L6.58538206,9.83056478 L3.83477298,9.83056478 L3.83477298,8.59534884 L6.52934662,8.59534884 L6.52934662,6.40509413 L3.8372093,6.40509413 L3.8372093,5.17718715 C4.06378738,5.16013289 4.2952381,5.1406423 4.63632337,5.11384275 C4.27087486,4.68261351 3.95658915,4.31229236 3.61550388,3.910299 C3.93466224,3.62768549 4.21971207,3.37918051 4.53156146,3.10387597 C5.06024363,3.70321152 5.55968992,4.27087486 6.06400886,4.83610188 C6.47818383,5.296567 7.62325581,5.29413068 8.04230343,4.82879291 C8.54662237,4.26600221 9.04363234,3.69833887 9.56987818,3.10387597 C9.88903654,3.38405316 10.1740864,3.63499446 10.4908084,3.91517165 C10.1521595,4.30741971 9.8427464,4.66799557 9.45049834,5.12115172 C9.86223699,5.1406423 10.1765227,5.15282392 10.5370986,5.16987818 L10.5370986,6.38803987 C9.79645626,6.38803987 9.07774086,6.40996678 8.36146179,6.3807309 C7.92779623,6.36367663 7.76212625,6.50011074 7.79379845,6.94595792 C7.82790698,7.46002215 7.80110742,7.9765227 7.80110742,8.55636766 L10.5346622,8.55636766 L10.5346622,9.8110742 C9.80376523,9.8110742 9.08504983,9.83300111 8.36877076,9.80376523 C7.94241417,9.78671096 7.77430786,9.90852713 7.79136213,10.3616833 C7.82790698,11.1827243 7.80354374,12.0135105 7.80354374,12.86866 Z" id="Shape"></path>
                <path d="M15.7873754,14.8493909 C16.3063123,14.8493909 16.7326689,14.8786268 17.1517165,14.8420819 C17.6316722,14.7982281 17.7827243,15.0028793 17.7266888,15.4462901 C17.7023256,15.641196 17.7047619,15.8409745 17.6950166,16.0675526 L14.6033223,16.0675526 L14.6033223,12.4057586 L15.7898117,12.4057586 C15.7873754,13.1975637 15.7873754,13.9820598 15.7873754,14.8493909 Z M3.52779623,16.3136213 L3.52779623,15.1734219 L7.97165006,15.1734219 L7.97165006,16.3136213 L3.52779623,16.3136213 Z M15.972536,6.34905869 L12.3911406,6.34905869 L12.3911406,5.17718715 L15.972536,5.17718715 L15.972536,6.34905869 Z" id="Shape"></path>
            </g>
        </g>
    </g>
</svg>