<?xml version="1.0" encoding="UTF-8"?>
<svg width="50px" height="51px" viewBox="0 0 50 51" version="1.1" xmlns="http://www.w3.org/2000/svg" xmlns:xlink="http://www.w3.org/1999/xlink">
    <!-- Generator: Sketch 48 (47235) - http://www.bohemiancoding.com/sketch -->
    <title>Rectangle 44</title>
    <desc>Created with Sketch.</desc>
    <defs>
        <linearGradient x1="50%" y1="0%" x2="50%" y2="100%" id="linearGradient-1">
            <stop stop-color="#42D5B7" offset="0%"></stop>
            <stop stop-color="#16987E" offset="100%"></stop>
        </linearGradient>
    </defs>
    <g id="01-Home-Function" stroke="none" stroke-width="1" fill="none" fill-rule="evenodd" transform="translate(-307.000000, -419.000000)">
        <g id="iphone-x-white-bg">
            <rect id="bg" x="0" y="0" width="375" height="812"></rect>
            <g id="Bars/Home-Indicator/Home-Indicator---On-Light" transform="translate(0.000000, 778.000000)" fill="#000000" fill-rule="evenodd">
                <rect id="Rectangle-24" x="121" y="20" width="134" height="5" rx="2.5"></rect>
            </g>
            <g id="Bars/Status-Bar/Light-Status-Bar">
                <g id="Battery" stroke-width="1" fill-rule="evenodd" transform="translate(336.000000, 17.000000)">
                    <rect id="Border" stroke="#000000" opacity="0.35" x="0.5" y="0.833333333" width="21" height="10.3333333" rx="2.66666675"></rect>
                    <path d="M23,4 L23,8 C23.8047311,7.66122348 24.328038,6.87313328 24.328038,6 C24.328038,5.12686672 23.8047311,4.33877652 23,4" id="Cap" fill="#000000" fill-rule="nonzero" opacity="0.4"></path>
                    <rect id="Capacity" fill="#000000" fill-rule="nonzero" x="2" y="2.33333333" width="18" height="7.33333333" rx="1.33333337"></rect>
                </g>
                <path d="M323.330333,19.608 C325.546226,19.6080971 327.677386,20.4595347 329.283333,21.9863333 C329.404265,22.1042079 329.597562,22.102721 329.716667,21.983 L330.872667,20.8163333 C330.932975,20.7556112 330.966599,20.6733595 330.966098,20.5877792 C330.965598,20.5021988 330.931014,20.420346 330.87,20.3603333 C326.654902,16.3207858 320.005098,16.3207858 315.79,20.3603333 C315.728941,20.4203015 315.694297,20.5021294 315.693734,20.5877099 C315.693171,20.6732903 315.726736,20.755567 315.787,20.8163333 L316.943333,21.983 C317.062362,22.1029017 317.255808,22.1043897 317.376667,21.9863333 C318.982819,20.4594344 321.114223,19.6079944 323.330333,19.608 Z M323.330333,23.4036667 C324.547823,23.4035921 325.721865,23.8561245 326.624333,24.6733333 C326.746397,24.7893139 326.938678,24.7867994 327.057667,24.6676667 L328.212333,23.501 C328.273141,23.439805 328.30688,23.3567887 328.306003,23.2705239 C328.305126,23.1842592 328.269706,23.101946 328.207667,23.042 C325.459468,20.4856177 321.203532,20.4856177 318.455333,23.042 C318.393256,23.1019453 318.357837,23.1842997 318.357023,23.2705923 C318.356208,23.356885 318.390065,23.4398934 318.451,23.501 L319.605333,24.6676667 C319.724322,24.7867994 319.916603,24.7893139 320.038667,24.6733333 C320.940539,23.8566645 322.113649,23.4041708 323.330333,23.4036667 Z M325.549333,26.188 C325.611087,26.127394 325.645095,26.0439919 325.643328,25.957485 C325.641561,25.8709782 325.604176,25.7890342 325.54,25.731 C324.264428,24.6521162 322.396238,24.6521162 321.120667,25.731 C321.056446,25.7889875 321.019,25.8709057 321.01717,25.957413 C321.01534,26.0439203 321.049289,26.1273487 321.111,26.188 L323.108667,28.2036667 C323.167217,28.2629057 323.247042,28.2962443 323.330333,28.2962443 C323.413624,28.2962443 323.49345,28.2629057 323.552,28.2036667 L325.549333,26.188 Z" id="Wifi" fill="#000000" fill-rule="nonzero"></path>
                <path d="M294.666667,24.3333333 L295.666667,24.3333333 C296.218951,24.3333333 296.666667,24.7810486 296.666667,25.3333333 L296.666667,27.3333333 C296.666667,27.8856181 296.218951,28.3333333 295.666667,28.3333333 L294.666667,28.3333333 C294.114382,28.3333333 293.666667,27.8856181 293.666667,27.3333333 L293.666667,25.3333333 C293.666667,24.7810486 294.114382,24.3333333 294.666667,24.3333333 Z M299.333333,22.3333333 L300.333333,22.3333333 C300.885618,22.3333333 301.333333,22.7810486 301.333333,23.3333333 L301.333333,27.3333333 C301.333333,27.8856181 300.885618,28.3333333 300.333333,28.3333333 L299.333333,28.3333333 C298.781049,28.3333333 298.333333,27.8856181 298.333333,27.3333333 L298.333333,23.3333333 C298.333333,22.7810486 298.781049,22.3333333 299.333333,22.3333333 Z M304,20 L305,20 C305.552285,20 306,20.4477153 306,21 L306,27.3333333 C306,27.8856181 305.552285,28.3333333 305,28.3333333 L304,28.3333333 C303.447715,28.3333333 303,27.8856181 303,27.3333333 L303,21 C303,20.4477153 303.447715,20 304,20 Z M308.666667,17.6666667 L309.666667,17.6666667 C310.218951,17.6666667 310.666667,18.1143819 310.666667,18.6666667 L310.666667,27.3333333 C310.666667,27.8856181 310.218951,28.3333333 309.666667,28.3333333 L308.666667,28.3333333 C308.114382,28.3333333 307.666667,27.8856181 307.666667,27.3333333 L307.666667,18.6666667 C307.666667,18.1143819 308.114382,17.6666667 308.666667,17.6666667 Z" id="Cellular-Connection" fill="#000000" fill-rule="nonzero"></path>
                <g id="Bars/_/Time-Black" transform="translate(21.000000, 9.000000)" fill="#000000" font-family=".AppleSystemUIFont" font-size="14" font-weight="normal" letter-spacing="-0.280000001">
                    <text id="↳-Time">
                        <tspan x="13.4131641" y="21">9:4</tspan>
                        <tspan x="34.2089062" y="21">1</tspan>
                    </text>
                </g>
            </g>
        </g>
        <rect id="Rectangle-4" fill="url(#linearGradient-1)" x="307" y="419.666667" width="50" height="50" rx="22"></rect>
        <g id="news-icon" transform="translate(321.000000, 433.666667)">
            <rect id="icon_bg" x="0" y="0" width="22" height="22"></rect>
            <g id="Pay" fill="#FFFFFF" fill-rule="nonzero">
                <path d="M8.71818444,9.12171333 L8.71818444,10.4771333 C9.09876,10.4771333 9.47936,10.2835089 9.47936,9.89623556 C9.47936,9.50898667 9.28903556,9.12171333 8.71818444,9.12171333 Z M7.76673333,7.95996667 C7.76673333,8.34721556 7.95700889,8.54086444 8.33760889,8.54086444 L8.33760889,7.37906889 C8.14730889,7.37906889 7.76673333,7.57271778 7.76673333,7.95996667 Z M18.2326467,11.0579822 L20.1355489,11.4452556 L21.8481511,3.89375556 L5.29298,0.0212177778 L4.34152889,4.08740444 L18.2326222,4.08740444 L18.2326222,11.0579822 L18.2326467,11.0579822 Z M17.6617956,4.86190222 L0.535748889,4.86190222 L0.535748889,12.6070267 L17.6617956,12.6070267 L17.6617956,4.86190222 Z M8.71818444,10.8643578 L8.71818444,11.4452556 L8.52790889,11.4452556 L8.52790889,10.8643578 C7.76673333,10.8643578 7.19588222,10.4771089 7.19588222,9.70261111 L7.76673333,9.50898667 C7.76673333,10.0898356 8.14730889,10.4771333 8.52790889,10.4771333 L8.52790889,8.92808889 C7.57643333,8.92808889 7.19588222,8.54084 7.19588222,7.95996667 C7.19588222,7.37909333 7.57643333,6.99182 8.33760889,6.99182 L8.33760889,6.41092222 L8.71818444,6.41092222 L8.71818444,6.79819556 C9.28903556,6.79819556 9.66963556,7.18544444 9.85991111,7.76634222 L9.47936,7.95996667 C9.47936,7.57271778 9.09878444,7.37906889 8.90848444,7.18544444 L8.90848444,8.54086444 C9.66966,8.73448889 10.0502356,9.12171333 10.0502356,9.70261111 C10.0502111,10.4771333 9.47936,10.8643578 8.71818444,10.8643578 Z M19.5646733,13.5751489 C17.09092,16.6732133 13.8559911,16.4795889 13.8559911,16.4795889 L4.34152889,16.4795889 L4.34152889,14.3496711 C4.34152889,13.9624222 3.96095333,13.9624222 3.77065333,14.1560467 L0.155173333,17.83496 C-0.0351266667,18.0285844 -0.0351266667,18.2222333 0.155173333,18.2222333 L3.77065333,21.9011467 C3.96095333,22.0947711 4.34152889,21.9011467 4.34152889,21.7075222 L4.34152889,19.38398 L13.4753911,19.38398 C13.6656911,19.38398 14.0462422,19.38398 14.2365667,19.1903556 C18.8035222,17.2541111 22.0384267,10.6707333 19.5646733,13.5751489 Z" id="Shape"></path>
            </g>
        </g>
    </g>
</svg>