<?xml version="1.0" encoding="UTF-8"?>
<svg width="50px" height="51px" viewBox="0 0 50 51" version="1.1" xmlns="http://www.w3.org/2000/svg" xmlns:xlink="http://www.w3.org/1999/xlink">
    <!-- Generator: Sketch 48 (47235) - http://www.bohemiancoding.com/sketch -->
    <title>Rectangle 49</title>
    <desc>Created with Sketch.</desc>
    <defs>
        <linearGradient x1="50%" y1="0%" x2="50%" y2="100%" id="linearGradient-1">
            <stop stop-color="#899AAB" offset="0%"></stop>
            <stop stop-color="#516172" offset="100%"></stop>
        </linearGradient>
    </defs>
    <g id="01-Home-Function" stroke="none" stroke-width="1" fill="none" fill-rule="evenodd" transform="translate(-121.000000, -670.000000)">
        <g id="iphone-x-white-bg">
            <rect id="bg" x="0" y="0" width="375" height="812"></rect>
            <g id="Bars/Home-Indicator/Home-Indicator---On-Light" transform="translate(0.000000, 778.000000)" fill="#000000" fill-rule="evenodd">
                <rect id="Rectangle-24" x="121" y="20" width="134" height="5" rx="2.5"></rect>
            </g>
            <g id="Bars/Status-Bar/Light-Status-Bar">
                <g id="Battery" stroke-width="1" fill-rule="evenodd" transform="translate(336.000000, 17.000000)">
                    <rect id="Border" stroke="#000000" opacity="0.35" x="0.5" y="0.833333333" width="21" height="10.3333333" rx="2.66666675"></rect>
                    <path d="M23,4 L23,8 C23.8047311,7.66122348 24.328038,6.87313328 24.328038,6 C24.328038,5.12686672 23.8047311,4.33877652 23,4" id="Cap" fill="#000000" fill-rule="nonzero" opacity="0.4"></path>
                    <rect id="Capacity" fill="#000000" fill-rule="nonzero" x="2" y="2.33333333" width="18" height="7.33333333" rx="1.33333337"></rect>
                </g>
                <path d="M323.330333,19.608 C325.546226,19.6080971 327.677386,20.4595347 329.283333,21.9863333 C329.404265,22.1042079 329.597562,22.102721 329.716667,21.983 L330.872667,20.8163333 C330.932975,20.7556112 330.966599,20.6733595 330.966098,20.5877792 C330.965598,20.5021988 330.931014,20.420346 330.87,20.3603333 C326.654902,16.3207858 320.005098,16.3207858 315.79,20.3603333 C315.728941,20.4203015 315.694297,20.5021294 315.693734,20.5877099 C315.693171,20.6732903 315.726736,20.755567 315.787,20.8163333 L316.943333,21.983 C317.062362,22.1029017 317.255808,22.1043897 317.376667,21.9863333 C318.982819,20.4594344 321.114223,19.6079944 323.330333,19.608 Z M323.330333,23.4036667 C324.547823,23.4035921 325.721865,23.8561245 326.624333,24.6733333 C326.746397,24.7893139 326.938678,24.7867994 327.057667,24.6676667 L328.212333,23.501 C328.273141,23.439805 328.30688,23.3567887 328.306003,23.2705239 C328.305126,23.1842592 328.269706,23.101946 328.207667,23.042 C325.459468,20.4856177 321.203532,20.4856177 318.455333,23.042 C318.393256,23.1019453 318.357837,23.1842997 318.357023,23.2705923 C318.356208,23.356885 318.390065,23.4398934 318.451,23.501 L319.605333,24.6676667 C319.724322,24.7867994 319.916603,24.7893139 320.038667,24.6733333 C320.940539,23.8566645 322.113649,23.4041708 323.330333,23.4036667 Z M325.549333,26.188 C325.611087,26.127394 325.645095,26.0439919 325.643328,25.957485 C325.641561,25.8709782 325.604176,25.7890342 325.54,25.731 C324.264428,24.6521162 322.396238,24.6521162 321.120667,25.731 C321.056446,25.7889875 321.019,25.8709057 321.01717,25.957413 C321.01534,26.0439203 321.049289,26.1273487 321.111,26.188 L323.108667,28.2036667 C323.167217,28.2629057 323.247042,28.2962443 323.330333,28.2962443 C323.413624,28.2962443 323.49345,28.2629057 323.552,28.2036667 L325.549333,26.188 Z" id="Wifi" fill="#000000" fill-rule="nonzero"></path>
                <path d="M294.666667,24.3333333 L295.666667,24.3333333 C296.218951,24.3333333 296.666667,24.7810486 296.666667,25.3333333 L296.666667,27.3333333 C296.666667,27.8856181 296.218951,28.3333333 295.666667,28.3333333 L294.666667,28.3333333 C294.114382,28.3333333 293.666667,27.8856181 293.666667,27.3333333 L293.666667,25.3333333 C293.666667,24.7810486 294.114382,24.3333333 294.666667,24.3333333 Z M299.333333,22.3333333 L300.333333,22.3333333 C300.885618,22.3333333 301.333333,22.7810486 301.333333,23.3333333 L301.333333,27.3333333 C301.333333,27.8856181 300.885618,28.3333333 300.333333,28.3333333 L299.333333,28.3333333 C298.781049,28.3333333 298.333333,27.8856181 298.333333,27.3333333 L298.333333,23.3333333 C298.333333,22.7810486 298.781049,22.3333333 299.333333,22.3333333 Z M304,20 L305,20 C305.552285,20 306,20.4477153 306,21 L306,27.3333333 C306,27.8856181 305.552285,28.3333333 305,28.3333333 L304,28.3333333 C303.447715,28.3333333 303,27.8856181 303,27.3333333 L303,21 C303,20.4477153 303.447715,20 304,20 Z M308.666667,17.6666667 L309.666667,17.6666667 C310.218951,17.6666667 310.666667,18.1143819 310.666667,18.6666667 L310.666667,27.3333333 C310.666667,27.8856181 310.218951,28.3333333 309.666667,28.3333333 L308.666667,28.3333333 C308.114382,28.3333333 307.666667,27.8856181 307.666667,27.3333333 L307.666667,18.6666667 C307.666667,18.1143819 308.114382,17.6666667 308.666667,17.6666667 Z" id="Cellular-Connection" fill="#000000" fill-rule="nonzero"></path>
                <g id="Bars/_/Time-Black" transform="translate(21.000000, 9.000000)" fill="#000000" font-family=".AppleSystemUIFont" font-size="14" font-weight="normal" letter-spacing="-0.280000001">
                    <text id="↳-Time">
                        <tspan x="13.4131641" y="21">9:4</tspan>
                        <tspan x="34.2089062" y="21">1</tspan>
                    </text>
                </g>
            </g>
        </g>
        <rect id="Rectangle-4" fill="url(#linearGradient-1)" x="121" y="670.333333" width="50" height="50" rx="22"></rect>
        <g id="news-icon" transform="translate(135.000000, 684.333333)">
            <rect id="icon_bg" x="0" y="0" width="22" height="22"></rect>
            <g id="news" transform="translate(0.000000, 1.000000)" fill="#FFFFFF" fill-rule="nonzero">
                <path d="M13.8697976,19.9193522 C13.4593684,19.9193522 13.0945425,19.6457328 13.003336,19.1897004 C12.9121296,18.6880648 13.185749,18.2320324 13.6873846,18.0952227 C17.5180567,17.2287611 20.2086478,13.8541215 20.2086478,9.93224291 C20.2086478,5.96476113 17.4724534,2.54451822 13.7329879,1.8148664 C13.185749,1.76926316 12.8665263,1.26762753 12.9577328,0.765991903 C13.0489393,0.264356275 13.5505749,-0.0548663968 14.0522105,0.036340081 C18.6581377,0.948404858 22.0327773,5.14390283 21.9871741,9.97784615 C21.9871741,14.7661862 18.7037409,18.8248745 14.0522105,19.873749 C14.0066073,19.9193522 13.9154008,19.9193522 13.8697976,19.9193522 Z M2.92502024,14.53817 L2.51459109,14.53817 C1.10089069,14.53817 0.00641295547,13.6261053 0.00641295547,12.4404211 L0.00641295547,7.28725506 C0.00641295547,6.10157085 1.10089069,5.18950607 2.51459109,5.18950607 L2.92502024,5.18950607 C4.33872065,5.18950607 5.43319838,6.10157085 5.43319838,7.28725506 L5.43319838,12.4404211 C5.43319838,13.6261053 4.33872065,14.53817 2.92502024,14.53817 Z M2.51459109,7.01363563 C2.10416194,7.01363563 1.87614575,7.19604858 1.83054251,7.28725506 L1.83054251,12.4404211 C1.83054251,12.4860243 2.10416194,12.7140405 2.51459109,12.7140405 L2.92502024,12.7140405 C3.33544939,12.7140405 3.56346559,12.5316275 3.60906883,12.4404211 L3.60906883,7.28725506 C3.56346559,7.19604858 3.33544939,7.01363563 2.92502024,7.01363563 L2.51459109,7.01363563 Z" id="Shape"></path>
                <path d="M10.8599838,19.0528907 C10.5407611,19.0528907 10.2215385,18.9616842 9.94791903,18.7792713 L4.01949798,14.9485992 C3.74587854,14.7661862 3.60906883,14.4925668 3.60906883,14.1733441 L3.60906883,6.46639676 L3.60906883,5.78234818 C3.60906883,5.46312551 3.74587854,5.18950607 4.01949798,5.00709312 L9.94791903,1.17642105 C10.4495547,0.857198381 11.088,0.811595142 11.6352389,1.13081781 C12.1824777,1.40443725 12.5017004,1.99727935 12.5017004,2.59012146 L12.5017004,17.3655709 C12.5017004,17.958413 12.1824777,18.5056518 11.6352389,18.8248745 C11.4072227,18.9616842 11.1336032,19.0528907 10.8599838,19.0528907 Z M5.43319838,13.6717085 L10.6775709,17.0463482 L10.6775709,2.90934413 L5.43319838,6.28398381 L5.43319838,13.6717085 Z M14.32583,14.4925668 C13.9154008,14.4925668 13.5049717,14.2189474 13.4137652,13.762915 C13.3225587,13.2612794 13.6417814,12.805247 14.0978138,12.6684372 C15.6483239,12.3492146 15.7851336,10.525085 15.7851336,9.93224291 C15.7851336,9.33940081 15.6483239,7.56087449 14.0978138,7.19604858 C13.6417814,7.15044534 13.3225587,6.69441296 13.4137652,6.19277733 C13.5049717,5.6911417 14.0066073,5.37191903 14.5082429,5.50872874 C16.4235789,5.91915789 17.6548664,7.65208097 17.6548664,10.0234494 C17.6548664,12.3948178 16.4691822,14.1277409 14.5082429,14.53817 C14.4170364,14.4925668 14.3714332,14.4925668 14.32583,14.4925668 Z" id="Shape"></path>
            </g>
        </g>
    </g>
</svg>