<?xml version="1.0" encoding="UTF-8"?>
<svg width="50px" height="51px" viewBox="0 0 50 51" version="1.1" xmlns="http://www.w3.org/2000/svg" xmlns:xlink="http://www.w3.org/1999/xlink">
    <!-- Generator: Sketch 48 (47235) - http://www.bohemiancoding.com/sketch -->
    <title>Rectangle 43</title>
    <desc>Created with Sketch.</desc>
    <defs>
        <linearGradient x1="50%" y1="0%" x2="50%" y2="100%" id="linearGradient-1">
            <stop stop-color="#FAE726" offset="0%"></stop>
            <stop stop-color="#DD921E" offset="100%"></stop>
        </linearGradient>
    </defs>
    <g id="01-Home-Function" stroke="none" stroke-width="1" fill="none" fill-rule="evenodd" transform="translate(-216.000000, -419.000000)">
        <g id="iphone-x-white-bg">
            <rect id="bg" x="0" y="0" width="375" height="812"></rect>
            <g id="Bars/Home-Indicator/Home-Indicator---On-Light" transform="translate(0.000000, 778.000000)" fill="#000000" fill-rule="evenodd">
                <rect id="Rectangle-24" x="121" y="20" width="134" height="5" rx="2.5"></rect>
            </g>
            <g id="Bars/Status-Bar/Light-Status-Bar">
                <g id="Battery" stroke-width="1" fill-rule="evenodd" transform="translate(336.000000, 17.000000)">
                    <rect id="Border" stroke="#000000" opacity="0.35" x="0.5" y="0.833333333" width="21" height="10.3333333" rx="2.66666675"></rect>
                    <path d="M23,4 L23,8 C23.8047311,7.66122348 24.328038,6.87313328 24.328038,6 C24.328038,5.12686672 23.8047311,4.33877652 23,4" id="Cap" fill="#000000" fill-rule="nonzero" opacity="0.4"></path>
                    <rect id="Capacity" fill="#000000" fill-rule="nonzero" x="2" y="2.33333333" width="18" height="7.33333333" rx="1.33333337"></rect>
                </g>
                <path d="M323.330333,19.608 C325.546226,19.6080971 327.677386,20.4595347 329.283333,21.9863333 C329.404265,22.1042079 329.597562,22.102721 329.716667,21.983 L330.872667,20.8163333 C330.932975,20.7556112 330.966599,20.6733595 330.966098,20.5877792 C330.965598,20.5021988 330.931014,20.420346 330.87,20.3603333 C326.654902,16.3207858 320.005098,16.3207858 315.79,20.3603333 C315.728941,20.4203015 315.694297,20.5021294 315.693734,20.5877099 C315.693171,20.6732903 315.726736,20.755567 315.787,20.8163333 L316.943333,21.983 C317.062362,22.1029017 317.255808,22.1043897 317.376667,21.9863333 C318.982819,20.4594344 321.114223,19.6079944 323.330333,19.608 Z M323.330333,23.4036667 C324.547823,23.4035921 325.721865,23.8561245 326.624333,24.6733333 C326.746397,24.7893139 326.938678,24.7867994 327.057667,24.6676667 L328.212333,23.501 C328.273141,23.439805 328.30688,23.3567887 328.306003,23.2705239 C328.305126,23.1842592 328.269706,23.101946 328.207667,23.042 C325.459468,20.4856177 321.203532,20.4856177 318.455333,23.042 C318.393256,23.1019453 318.357837,23.1842997 318.357023,23.2705923 C318.356208,23.356885 318.390065,23.4398934 318.451,23.501 L319.605333,24.6676667 C319.724322,24.7867994 319.916603,24.7893139 320.038667,24.6733333 C320.940539,23.8566645 322.113649,23.4041708 323.330333,23.4036667 Z M325.549333,26.188 C325.611087,26.127394 325.645095,26.0439919 325.643328,25.957485 C325.641561,25.8709782 325.604176,25.7890342 325.54,25.731 C324.264428,24.6521162 322.396238,24.6521162 321.120667,25.731 C321.056446,25.7889875 321.019,25.8709057 321.01717,25.957413 C321.01534,26.0439203 321.049289,26.1273487 321.111,26.188 L323.108667,28.2036667 C323.167217,28.2629057 323.247042,28.2962443 323.330333,28.2962443 C323.413624,28.2962443 323.49345,28.2629057 323.552,28.2036667 L325.549333,26.188 Z" id="Wifi" fill="#000000" fill-rule="nonzero"></path>
                <path d="M294.666667,24.3333333 L295.666667,24.3333333 C296.218951,24.3333333 296.666667,24.7810486 296.666667,25.3333333 L296.666667,27.3333333 C296.666667,27.8856181 296.218951,28.3333333 295.666667,28.3333333 L294.666667,28.3333333 C294.114382,28.3333333 293.666667,27.8856181 293.666667,27.3333333 L293.666667,25.3333333 C293.666667,24.7810486 294.114382,24.3333333 294.666667,24.3333333 Z M299.333333,22.3333333 L300.333333,22.3333333 C300.885618,22.3333333 301.333333,22.7810486 301.333333,23.3333333 L301.333333,27.3333333 C301.333333,27.8856181 300.885618,28.3333333 300.333333,28.3333333 L299.333333,28.3333333 C298.781049,28.3333333 298.333333,27.8856181 298.333333,27.3333333 L298.333333,23.3333333 C298.333333,22.7810486 298.781049,22.3333333 299.333333,22.3333333 Z M304,20 L305,20 C305.552285,20 306,20.4477153 306,21 L306,27.3333333 C306,27.8856181 305.552285,28.3333333 305,28.3333333 L304,28.3333333 C303.447715,28.3333333 303,27.8856181 303,27.3333333 L303,21 C303,20.4477153 303.447715,20 304,20 Z M308.666667,17.6666667 L309.666667,17.6666667 C310.218951,17.6666667 310.666667,18.1143819 310.666667,18.6666667 L310.666667,27.3333333 C310.666667,27.8856181 310.218951,28.3333333 309.666667,28.3333333 L308.666667,28.3333333 C308.114382,28.3333333 307.666667,27.8856181 307.666667,27.3333333 L307.666667,18.6666667 C307.666667,18.1143819 308.114382,17.6666667 308.666667,17.6666667 Z" id="Cellular-Connection" fill="#000000" fill-rule="nonzero"></path>
                <g id="Bars/_/Time-Black" transform="translate(21.000000, 9.000000)" fill="#000000" font-family=".AppleSystemUIFont" font-size="14" font-weight="normal" letter-spacing="-0.280000001">
                    <text id="↳-Time">
                        <tspan x="13.4131641" y="21">9:4</tspan>
                        <tspan x="34.2089062" y="21">1</tspan>
                    </text>
                </g>
            </g>
        </g>
        <rect id="Rectangle-4" fill="url(#linearGradient-1)" x="216" y="419.666667" width="50" height="50" rx="22"></rect>
        <g id="news-icon" transform="translate(230.000000, 433.666667)">
            <rect id="icon_bg" x="0" y="0" width="22" height="22"></rect>
            <g id="borrow" fill="#FFFFFF" fill-rule="nonzero">
                <path d="M20.7264386,14.5253012 C20.319306,13.5753253 19.1250506,13.5753253 18.4464964,13.7381783 L16.4379759,14.3081639 C16.3836916,14.9867181 16.0851277,15.5838458 15.5965687,16.0452627 C14.2666024,17.2938024 11.7152386,17.5652241 9.84242892,17.5652241 C8.75674217,17.5652241 7.91533494,17.4837976 7.72533976,17.4566554 C7.37249157,17.4295133 7.10106988,17.1038072 7.12821205,16.750959 C7.15535422,16.3981108 7.48106024,16.1266892 7.83390843,16.1538313 L7.88819277,16.1538313 C9.32672771,16.3166843 13.3166265,16.425253 14.7008771,15.1224289 C14.9722988,14.8781494 15.1080096,14.5795855 15.162294,14.2267373 C14.7551614,13.683894 14.1037494,13.4667566 13.5880482,13.4667566 L0.559807229,13.4667566 C0.261243373,13.4667566 0.0169638554,13.7110361 0.0169638554,14.0367422 L0.0169638554,16.3981108 C0.0169638554,16.6423904 0.261243373,17.5923663 0.396954217,17.7009349 C4.27828434,20.7137157 8.2138988,21.9893976 10.8738313,21.9893976 C11.1723952,21.9893976 11.470959,21.9622554 11.7423807,21.9351133 C13.4251952,21.6636916 18.9893398,18.0809253 20.0750265,17.1580916 C20.8350072,16.4795373 21.1064289,15.4481349 20.7264386,14.5253012 Z M17.6050892,0.00424096386 L3.30116627,0.00424096386 C2.07976867,0.00424096386 1.1026506,0.981359036 1.1026506,2.20275663 L1.1026506,9.91113253 C1.1026506,11.1325301 2.07976867,12.1096482 3.30116627,12.1096482 L17.6050892,12.1096482 C18.8264867,12.1096482 19.8036048,11.1325301 19.8036048,9.91113253 L19.8036048,2.20275663 C19.8036048,0.981359036 18.8264867,0.00424096386 17.6050892,0.00424096386 Z M12.5566458,7.08834699 C12.8009253,7.08834699 13.0180627,7.27834217 13.0180627,7.54976386 C13.0180627,7.79404337 12.8280675,8.01118072 12.5566458,8.01118072 L10.819547,8.01118072 L10.819547,9.47685783 C10.819547,9.72113735 10.6295518,9.9382747 10.3581301,9.9382747 C10.1138506,9.9382747 9.89671325,9.74827952 9.89671325,9.47685783 L9.89671325,8.01118072 L8.15961446,8.01118072 C7.91533494,8.01118072 7.69819759,7.82118554 7.69819759,7.54976386 C7.69819759,7.30548434 7.88819277,7.08834699 8.15961446,7.08834699 L9.89671325,7.08834699 L9.89671325,5.83980723 L8.15961446,5.83980723 C7.91533494,5.83980723 7.69819759,5.64981205 7.69819759,5.37839036 C7.69819759,5.13411084 7.88819277,4.91697349 8.15961446,4.91697349 L9.57100723,4.91697349 L7.88819277,3.6141494 C7.69819759,3.45129639 7.67105542,3.1798747 7.80676627,2.98987952 C7.96961928,2.79988434 8.24104096,2.77274217 8.43103614,2.90845301 L10.3038458,4.37413012 L12.2852241,2.90845301 C12.4752193,2.77274217 12.7737831,2.79988434 12.909494,2.98987952 C13.0452048,3.1798747 13.0180627,3.47843855 12.8280675,3.6141494 L11.0638265,4.94411566 L12.5566458,4.94411566 C12.8009253,4.94411566 13.0180627,5.13411084 13.0180627,5.40553253 C13.0180627,5.64981205 12.8280675,5.8669494 12.5566458,5.8669494 L10.819547,5.8669494 L10.819547,7.11548916 L12.5566458,7.11548916 L12.5566458,7.08834699 Z" id="Shape"></path>
            </g>
        </g>
    </g>
</svg>