<?xml version="1.0" encoding="UTF-8"?>
<svg width="50px" height="50px" viewBox="0 0 50 50" version="1.1" xmlns="http://www.w3.org/2000/svg" xmlns:xlink="http://www.w3.org/1999/xlink">
    <!-- Generator: Sketch 48 (47235) - http://www.bohemiancoding.com/sketch -->
    <title>Group 2</title>
    <desc>Created with Sketch.</desc>
    <defs>
        <linearGradient x1="50%" y1="0%" x2="50%" y2="100%" id="linearGradient-1">
            <stop stop-color="#B4EC51" offset="0%"></stop>
            <stop stop-color="#429321" offset="100%"></stop>
        </linearGradient>
    </defs>
    <g id="01-Home-Function" stroke="none" stroke-width="1" fill="none" fill-rule="evenodd" transform="translate(-26.000000, -275.000000)">
        <g id="Group-2" transform="translate(26.000000, 275.000000)">
            <rect id="Rectangle-4" fill="url(#linearGradient-1)" x="0" y="0" width="50" height="50" rx="22"></rect>
            <g id="news-icon" transform="translate(14.000000, 14.000000)">
                <rect id="icon_bg" x="0" y="0" width="22" height="22"></rect>
                <g id="records-consumption" transform="translate(2.000000, 0.000000)" fill="#FFFFFF" fill-rule="nonzero" stroke="#FFFFFF" stroke-width="0.5">
                    <path d="M16.2136801,21.9818615 L1.99026576,21.9818615 C1.91810438,21.9818615 1.84698802,21.9787215 1.77638924,21.9698338 C1.72095821,21.9640812 1.65611696,21.953626 1.59179824,21.9405532 C1.51492927,21.9232954 1.449043,21.90552 1.38629182,21.8840772 C1.33452333,21.8683918 1.2696821,21.8432914 1.20588588,21.8145284 C1.14731976,21.7883829 1.08770368,21.7580523 1.03018258,21.7245866 C0.979981639,21.6963461 0.923505592,21.6602679 0.869124502,21.6215722 C0.818401036,21.586539 0.76558752,21.5441807 0.715909103,21.5002549 C0.671460767,21.4620817 0.625444881,21.4181558 0.579951496,21.3705675 C0.535503159,21.3240291 0.493667397,21.2743506 0.452881592,21.2231047 C0.414708361,21.1749938 0.377580179,21.1221803 0.341501955,21.0667492 C0.308031372,21.0139357 0.276133271,20.9553696 0.24475767,20.895231 C0.214427119,20.8371874 0.189326648,20.7807113 0.16475361,20.7226677 C0.134945558,20.6473663 0.113507643,20.5846152 0.0952048027,20.5202964 C0.0779469865,20.4638204 0.0606941278,20.394799 0.0476213677,20.3231552 C0.035593657,20.261449 0.0251384036,20.1934727 0.0188632982,20.1228789 C0.0125881928,20.0601277 0.00840313677,19.9900564 0.00840313677,19.9194625 L0.0084031861,4.85310709 C0.0084031861,4.78199074 0.0125833094,4.7119194 0.0193858722,4.64393815 C0.0251384776,4.57961942 0.0350712063,4.51163816 0.0481439417,4.44366184 C0.0601716525,4.37777556 0.0779519933,4.30770423 0.0988674081,4.2402455 C0.113512626,4.18638202 0.134950565,4.1246808 0.159001078,4.06401967 C0.18880913,3.99290332 0.213909601,3.93694977 0.241100121,3.88309123 C0.276138253,3.81668246 0.308036354,3.75916136 0.345159603,3.70320781 C0.377580229,3.65300687 0.415230935,3.59914833 0.456021648,3.54737984 C0.495239904,3.49822392 0.535508117,3.45064049 0.577861471,3.40566965 C0.629629962,3.35285613 0.675645848,3.30788527 0.724801765,3.26552699 C0.76611007,3.2289213 0.819451043,3.18709048 0.874882065,3.14787222 C0.921420475,3.11492909 0.974756491,3.08041839 1.03175509,3.04747034 C1.09084373,3.01295966 1.14940985,2.98367413 1.20902593,2.95700611 C1.26968704,2.93033809 1.32982071,2.90680517 1.39204938,2.88641228 C1.45793566,2.86497434 1.52225439,2.84719403 1.58710054,2.83359383 C1.65298682,2.81947605 1.71940053,2.80849336 1.78737685,2.80117321 C1.85430815,2.79437558 1.92228941,2.79071305 1.9907932,2.79071305 L3.32109842,2.79071305 C3.61027636,2.79071305 3.84401832,3.02497753 3.84401832,3.31363295 C3.84401832,3.60228343 3.61027143,3.83655285 3.32109842,3.83655285 L1.9907932,3.83655285 C1.95889509,3.83655285 1.92699699,3.83812039 1.89562139,3.84126043 C1.86529084,3.84439552 1.83600531,3.84962561 1.80672472,3.85590074 C1.77639417,3.86269837 1.74606362,3.87106848 1.71782805,3.88047868 C1.69272758,3.88884386 1.66344205,3.90034907 1.63416146,3.91289931 C1.60906098,3.92388199 1.58239296,3.93747725 1.55676506,3.95211756 C1.53323707,3.96623535 1.50604159,3.98297064 1.48094112,4.00075096 C1.45270062,4.02062135 1.43021766,4.0378742 1.40930224,4.05618198 C1.37688162,4.08337252 1.3554437,4.10586039 1.33400083,4.12834829 C1.31674301,4.14716872 1.29478257,4.17279663 1.27386716,4.19946465 C1.25451929,4.22299264 1.23830653,4.24809311 1.22105364,4.27424354 C1.1996157,4.30666416 1.18602044,4.33385961 1.1708527,4.36157266 C1.15777994,4.38824068 1.14209463,4.42222885 1.12744939,4.45726205 C1.12117428,4.47451987 1.11019157,4.50641797 1.10025885,4.53883857 C1.08875363,4.5775343 1.0814335,4.60786485 1.0756809,4.63766797 C1.06836074,4.67427365 1.06365319,4.7077393 1.06051809,4.74172746 C1.05633303,4.78146824 1.05424298,4.81702887 1.05424298,4.85311202 L1.05424298,19.9194724 C1.05424298,19.9550281 1.05633306,19.9905887 1.05999559,20.0251043 C1.06365812,20.0643226 1.06888329,20.0972657 1.0746359,20.1296863 C1.08195605,20.1657695 1.08875368,20.1945325 1.0976463,20.2232906 C1.11019653,20.2672164 1.12170174,20.2991145 1.13320693,20.3299676 C1.14209463,20.349838 1.15726237,20.3833036 1.17347021,20.4152017 C1.18549792,20.4387297 1.1996157,20.4664477 1.21687352,20.4920707 C1.23622139,20.5224012 1.2534792,20.5480242 1.27334957,20.5725972 C1.29478751,20.6003103 1.31518533,20.6243657 1.33610074,20.6468487 C1.35806118,20.6693366 1.37950406,20.6907745 1.4035595,20.7116899 C1.429705,20.7346954 1.45218796,20.7524757 1.47519838,20.7686885 C1.50291143,20.7885589 1.52696687,20.8037217 1.55154482,20.817317 C1.58448795,20.8366648 1.61011587,20.8492151 1.63573394,20.8607203 C1.66240196,20.8727431 1.68750243,20.8826807 1.71208037,20.8905234 C1.7539112,20.9046461 1.78319673,20.9119663 1.81143723,20.9182414 C1.83183012,20.9224264 1.86320572,20.928179 1.8945813,20.9313141 C1.93275453,20.9360217 1.9615126,20.9365442 1.9897531,20.9365442 L16.2131675,20.9365442 C16.242453,20.9365442 16.2696435,20.9360217 16.2989241,20.9323641 C16.3391874,20.928179 16.3700405,20.9224264 16.399326,20.9166738 C16.4218139,20.9114437 16.451617,20.9046461 16.4793301,20.8947085 C16.5138408,20.8837258 16.5384187,20.8743156 16.5619517,20.8633329 C16.5948948,20.8486926 16.6205178,20.8356198 16.6450957,20.8214971 C16.6754263,20.8042442 16.7005267,20.7880315 16.7250998,20.7707737 C16.7507228,20.7524708 16.7758232,20.7320779 16.7998737,20.7116801 C16.816609,20.6965123 16.8390969,20.6756018 16.8600123,20.653114 C16.8903429,20.6222609 16.9096908,20.5982054 16.9295611,20.5731099 C16.9436789,20.5548071 16.9604093,20.5323241 16.9750545,20.5082686 C17.0012,20.4680054 17.0158403,20.4423774 17.0294405,20.4157094 C17.0435583,20.3885189 17.0571536,20.3597559 17.0686588,20.3304703 C17.084349,20.2917746 17.0948043,20.2614441 17.103692,20.2300685 C17.1120571,20.201828 17.1204273,20.1699348 17.1266975,20.1369917 C17.1345401,20.0967284 17.1392477,20.0622128 17.1429102,20.026657 C17.1465727,19.9916238 17.1476178,19.9560632 17.1476178,19.9205026 L17.1476178,4.85309224 C17.1476178,4.81700909 17.1465728,4.78145336 17.1429102,4.74694269 C17.1392526,4.71138206 17.1340176,4.67582633 17.12722,4.6407882 C17.1204223,4.60470504 17.1120522,4.57123939 17.102642,4.53881877 C17.0942768,4.51267327 17.0843392,4.48234272 17.0717889,4.45253467 C17.0566261,4.41279389 17.0419858,4.38403089 17.0278631,4.35527282 C17.0158403,4.33121737 17.0006677,4.3055944 16.9844598,4.28101643 C16.9588368,4.23970812 16.9431515,4.21774273 16.9264162,4.19630481 C16.9102034,4.17643442 16.889293,4.15028893 16.86576,4.12571098 C16.8417046,4.10061051 16.8197441,4.07917257 16.7967337,4.0593022 C16.7758183,4.04099936 16.7507178,4.02112897 16.7250948,4.00282616 C16.6979043,3.98347829 16.6701863,3.96622048 16.6409057,3.94896762 C16.6231303,3.93902996 16.5964574,3.9254347 16.5682169,3.91288446 C16.5378863,3.8992892 16.5086057,3.88830651 16.4787977,3.87836885 C16.4589224,3.87209375 16.4280693,3.86320111 16.3966987,3.85640841 C16.3653231,3.84961078 16.336565,3.8449032 16.3072795,3.8417681 C16.2759039,3.83862807 16.2450508,3.83706052 16.2121077,3.83706052 L14.8818024,3.83706052 C14.5926294,3.83706052 14.3588825,3.60279111 14.3588825,3.31414062 C14.3588825,3.02549014 14.5926245,2.79122072 14.8818024,2.79122072 L16.2121077,2.79122072 C16.2806114,2.79122072 16.3464977,2.79435582 16.414479,2.80168089 C16.4845503,2.80900104 16.5525266,2.82050623 16.6178953,2.83462401 C16.6785515,2.84769677 16.7418252,2.86495456 16.8030088,2.88430243 C16.8746477,2.90835787 16.9347814,2.93188586 16.9933524,2.95803629 C17.0508735,2.98365929 17.1094396,3.01294481 17.1659157,3.04536541 C17.2276218,3.0819711 17.2804353,3.11543675 17.3306363,3.15151497 C17.3829273,3.18812065 17.4320832,3.22786141 17.4807166,3.26969224 C17.5324851,3.31414057 17.579546,3.36015646 17.6239943,3.40721737 C17.6637351,3.44957566 17.7039984,3.49663657 17.7437391,3.54579248 C17.79185,3.60697118 17.8321133,3.66344725 17.8676739,3.72306333 C17.8943419,3.76228159 17.9283301,3.82137023 17.9602332,3.88255386 C17.9910862,3.94321005 18.0182768,4.00387116 18.0423273,4.06557731 C18.0642926,4.11839083 18.0867805,4.18166453 18.105601,4.24650575 C18.1254714,4.31553204 18.1422017,4.38194084 18.1547569,4.44782711 C18.1662572,4.51110081 18.1767223,4.57751452 18.183515,4.64496835 C18.1903126,4.71347213 18.1934526,4.783016 18.1934526,4.85413729 L18.1934526,19.9204976 C18.1934526,19.9910915 18.1903175,20.0611628 18.183515,20.129144 C18.1767173,20.1971204 18.1667797,20.2640566 18.1537069,20.3299429 C18.1427242,20.391649 18.1254664,20.4580578 18.1071685,20.5223765 C18.0867756,20.5919253 18.0642877,20.6562441 18.0386696,20.7189952 C18.0182768,20.7723362 17.9895137,20.8335149 17.9602282,20.892081 C17.9283301,20.9532647 17.8943419,21.0133983 17.8566912,21.0703969 C17.8310682,21.1127552 17.7913275,21.1687038 17.7494917,21.2220448 C17.7050434,21.2774758 17.6632125,21.3271493 17.6187593,21.3731701 C17.582681,21.4123884 17.5356152,21.4573592 17.4869867,21.5002351 C17.4326007,21.5467784 17.3829272,21.5870417 17.3306313,21.6236474 C17.2772952,21.6618206 17.2223917,21.6968587 17.1659107,21.7287568 C17.1115247,21.7601324 17.052436,21.7899355 16.9912524,21.817131 C16.9347764,21.8432765 16.8694126,21.868377 16.8030038,21.8892973 C16.7501903,21.9070727 16.6858716,21.9243305 16.6194628,21.9389708 C16.548869,21.953616 16.4824602,21.9645938 16.4155239,21.9713914 C16.3553903,21.9787264 16.2858366,21.9818615 16.2136801,21.9818615 Z M5.77358497,5.40060494 C5.42689089,5.40060494 5.0754843,5.22647412 4.85638263,4.9451438 C4.64094348,4.66904355 4.56929969,4.32652959 4.65610632,3.98192557 L4.70421718,3.78791943 C4.79677148,3.41873745 4.87678045,3.09766635 4.92331886,2.90523269 C5.03365347,2.44610899 5.6214146,1.91168388 6.21283828,1.91168388 L6.80896461,1.91063886 L7.06310441,1.91168388 L7.06415437,1.90750376 C7.12637809,1.65388648 7.24612787,1.17018483 7.30155889,0.9699085 C7.42967382,0.512352352 7.98344679,0.0192405045 8.65539703,0.0192405045 L9.20812498,0.0181954798 L9.53861123,0.0192405045 C10.2257243,0.0208080538 10.7826373,0.517582457 10.9029096,0.977228655 C10.9588631,1.18587508 11.084888,1.65650398 11.1512968,1.91220641 L11.3954989,1.91272893 L11.8446899,1.91168391 C12.7278991,1.91168391 13.1891178,2.50572016 13.2858572,2.90470526 L13.5483622,3.98558319 C13.6335963,4.33698485 13.5619574,4.68106635 13.3470359,4.95403152 C13.1305468,5.22856422 12.7880328,5.39955996 12.4523165,5.39955996 L11.9063862,5.39903744 C10.3595919,5.39694736 6.08943098,5.39171728 5.80234805,5.39903744 L5.77358497,5.40060494 Z M6.80896954,2.95752368 L6.21441076,2.95856871 C6.14172192,2.96118128 5.97125364,3.09348126 5.93203538,3.17662536 C5.89333965,3.34552609 5.81228563,3.6697372 5.71972641,4.04153178 L5.67109795,4.23606041 C5.66220531,4.27005352 5.66743541,4.28469381 5.6815532,4.30194669 C5.70874374,4.33698482 5.75580959,4.35476021 5.77411243,4.35476021 L5.77411243,4.87768011 L5.77516239,4.35476021 C6.06329034,4.34691755 10.3517541,4.35214763 11.9079635,4.35423768 L12.4528439,4.35476021 C12.4653941,4.35319266 12.5072299,4.33384479 12.5286678,4.30455926 C12.5344204,4.29671661 12.5443581,4.2820763 12.5328529,4.23239788 L12.2692979,3.15256991 C12.2682529,3.15256991 12.1877214,2.95856377 11.8541001,2.95856377 L11.3949714,2.95961376 L11.0289295,2.95856873 C10.6252368,2.95856873 10.2706951,2.67985098 10.1661131,2.28086588 C10.1143446,2.07901709 9.95747162,1.48864337 9.89262544,1.24600877 C9.87223255,1.20522297 9.72319727,1.06612535 9.53494865,1.06560283 L9.20812,1.06507537 L8.65539205,1.06612039 C8.47550863,1.06612039 8.33013589,1.20939813 8.30503542,1.26430665 C8.255357,1.4452351 8.14031481,1.91377393 8.07913118,2.1590211 L8.05037311,2.2745858 C7.94840368,2.68926116 7.59543447,2.95856377 7.15199611,2.95856377 L6.80896954,2.95752368 Z M9.64632831,18.6330831 C9.64632831,18.9363739 9.40003118,19.1680307 9.09883046,19.1680307 C8.79448972,19.1680307 8.54819752,18.9363788 8.54819752,18.6330831 L8.54819752,16.3494924 L6.07635817,16.3494924 C5.88914966,16.3494924 5.71606387,16.1764016 5.71606387,15.9756028 C5.71606387,15.7716639 5.88914966,15.5985781 6.07635817,15.5985781 L8.54819752,15.5985781 L8.54819752,14.0230208 L6.07635817,14.0230208 C5.88914966,14.0230208 5.71606387,13.849935 5.71606387,13.6350135 C5.71606387,13.4451924 5.88914966,13.2721066 6.07635817,13.2721066 L8.52048445,13.2721066 L5.26740036,8.59093291 C5.10948232,8.3310405 5.16595839,7.99741918 5.42689089,7.82433339 C5.65697525,7.65124267 6.00419186,7.72236396 6.17937263,7.9545384 L9.01046122,12.0589336 C9.02562403,12.0882192 9.06850482,12.1175047 9.09831287,12.1175047 C9.12602592,12.1175047 9.16786168,12.0882192 9.18459204,12.0589336 L12.0167257,7.9545384 C12.1898164,7.72288649 12.5365105,7.6512427 12.7822802,7.82432846 C13.0280548,7.99793678 13.1007387,8.33156303 12.9271304,8.59092798 L9.69025905,13.2721066 L12.117655,13.2721066 C12.3221163,13.2721066 12.4795119,13.4451973 12.4795119,13.6350135 C12.4795119,13.849935 12.3215938,14.0230208 12.117655,14.0230208 L9.64581563,14.0230208 L9.64581563,15.5985781 L12.117655,15.5985781 C12.3221163,15.5985781 12.4795119,15.7716639 12.4795119,15.9756028 C12.4795119,16.1764016 12.3215938,16.3494924 12.117655,16.3494924 L9.64581563,16.3494924 L9.64632831,18.6330831 Z" id="Shape"></path>
                </g>
            </g>
        </g>
    </g>
</svg>