<?xml version="1.0" encoding="UTF-8"?>
<svg width="50px" height="51px" viewBox="0 0 50 51" version="1.1" xmlns="http://www.w3.org/2000/svg" xmlns:xlink="http://www.w3.org/1999/xlink">
    <!-- Generator: Sketch 48 (47235) - http://www.bohemiancoding.com/sketch -->
    <title>Rectangle 4</title>
    <desc>Created with Sketch.</desc>
    <defs>
        <linearGradient x1="50%" y1="0%" x2="50%" y2="100%" id="linearGradient-1">
            <stop stop-color="#F5F5F5" offset="0%"></stop>
            <stop stop-color="#E8E8E8" offset="100%"></stop>
        </linearGradient>
    </defs>
    <g id="01-Home-Function" stroke="none" stroke-width="1" fill="none" fill-rule="evenodd" transform="translate(-214.000000, -670.000000)">
        <g id="iphone-x-white-bg">
            <rect id="bg" x="0" y="0" width="375" height="812"></rect>
            <g id="Bars/Home-Indicator/Home-Indicator---On-Light" transform="translate(0.000000, 778.000000)" fill="#000000" fill-rule="evenodd">
                <rect id="Rectangle-24" x="121" y="20" width="134" height="5" rx="2.5"></rect>
            </g>
            <g id="Bars/Status-Bar/Light-Status-Bar">
                <g id="Battery" stroke-width="1" fill-rule="evenodd" transform="translate(336.000000, 17.000000)">
                    <rect id="Border" stroke="#000000" opacity="0.35" x="0.5" y="0.833333333" width="21" height="10.3333333" rx="2.66666675"></rect>
                    <path d="M23,4 L23,8 C23.8047311,7.66122348 24.328038,6.87313328 24.328038,6 C24.328038,5.12686672 23.8047311,4.33877652 23,4" id="Cap" fill="#000000" fill-rule="nonzero" opacity="0.4"></path>
                    <rect id="Capacity" fill="#000000" fill-rule="nonzero" x="2" y="2.33333333" width="18" height="7.33333333" rx="1.33333337"></rect>
                </g>
                <path d="M323.330333,19.608 C325.546226,19.6080971 327.677386,20.4595347 329.283333,21.9863333 C329.404265,22.1042079 329.597562,22.102721 329.716667,21.983 L330.872667,20.8163333 C330.932975,20.7556112 330.966599,20.6733595 330.966098,20.5877792 C330.965598,20.5021988 330.931014,20.420346 330.87,20.3603333 C326.654902,16.3207858 320.005098,16.3207858 315.79,20.3603333 C315.728941,20.4203015 315.694297,20.5021294 315.693734,20.5877099 C315.693171,20.6732903 315.726736,20.755567 315.787,20.8163333 L316.943333,21.983 C317.062362,22.1029017 317.255808,22.1043897 317.376667,21.9863333 C318.982819,20.4594344 321.114223,19.6079944 323.330333,19.608 Z M323.330333,23.4036667 C324.547823,23.4035921 325.721865,23.8561245 326.624333,24.6733333 C326.746397,24.7893139 326.938678,24.7867994 327.057667,24.6676667 L328.212333,23.501 C328.273141,23.439805 328.30688,23.3567887 328.306003,23.2705239 C328.305126,23.1842592 328.269706,23.101946 328.207667,23.042 C325.459468,20.4856177 321.203532,20.4856177 318.455333,23.042 C318.393256,23.1019453 318.357837,23.1842997 318.357023,23.2705923 C318.356208,23.356885 318.390065,23.4398934 318.451,23.501 L319.605333,24.6676667 C319.724322,24.7867994 319.916603,24.7893139 320.038667,24.6733333 C320.940539,23.8566645 322.113649,23.4041708 323.330333,23.4036667 Z M325.549333,26.188 C325.611087,26.127394 325.645095,26.0439919 325.643328,25.957485 C325.641561,25.8709782 325.604176,25.7890342 325.54,25.731 C324.264428,24.6521162 322.396238,24.6521162 321.120667,25.731 C321.056446,25.7889875 321.019,25.8709057 321.01717,25.957413 C321.01534,26.0439203 321.049289,26.1273487 321.111,26.188 L323.108667,28.2036667 C323.167217,28.2629057 323.247042,28.2962443 323.330333,28.2962443 C323.413624,28.2962443 323.49345,28.2629057 323.552,28.2036667 L325.549333,26.188 Z" id="Wifi" fill="#000000" fill-rule="nonzero"></path>
                <path d="M294.666667,24.3333333 L295.666667,24.3333333 C296.218951,24.3333333 296.666667,24.7810486 296.666667,25.3333333 L296.666667,27.3333333 C296.666667,27.8856181 296.218951,28.3333333 295.666667,28.3333333 L294.666667,28.3333333 C294.114382,28.3333333 293.666667,27.8856181 293.666667,27.3333333 L293.666667,25.3333333 C293.666667,24.7810486 294.114382,24.3333333 294.666667,24.3333333 Z M299.333333,22.3333333 L300.333333,22.3333333 C300.885618,22.3333333 301.333333,22.7810486 301.333333,23.3333333 L301.333333,27.3333333 C301.333333,27.8856181 300.885618,28.3333333 300.333333,28.3333333 L299.333333,28.3333333 C298.781049,28.3333333 298.333333,27.8856181 298.333333,27.3333333 L298.333333,23.3333333 C298.333333,22.7810486 298.781049,22.3333333 299.333333,22.3333333 Z M304,20 L305,20 C305.552285,20 306,20.4477153 306,21 L306,27.3333333 C306,27.8856181 305.552285,28.3333333 305,28.3333333 L304,28.3333333 C303.447715,28.3333333 303,27.8856181 303,27.3333333 L303,21 C303,20.4477153 303.447715,20 304,20 Z M308.666667,17.6666667 L309.666667,17.6666667 C310.218951,17.6666667 310.666667,18.1143819 310.666667,18.6666667 L310.666667,27.3333333 C310.666667,27.8856181 310.218951,28.3333333 309.666667,28.3333333 L308.666667,28.3333333 C308.114382,28.3333333 307.666667,27.8856181 307.666667,27.3333333 L307.666667,18.6666667 C307.666667,18.1143819 308.114382,17.6666667 308.666667,17.6666667 Z" id="Cellular-Connection" fill="#000000" fill-rule="nonzero"></path>
                <g id="Bars/_/Time-Black" transform="translate(21.000000, 9.000000)" fill="#000000" font-family=".AppleSystemUIFont" font-size="14" font-weight="normal" letter-spacing="-0.280000001">
                    <text id="↳-Time">
                        <tspan x="13.4131641" y="21">9:4</tspan>
                        <tspan x="34.2089062" y="21">1</tspan>
                    </text>
                </g>
            </g>
        </g>
        <rect id="Rectangle-4" fill="url(#linearGradient-1)" x="214" y="670.333333" width="50" height="50" rx="22"></rect>
        <g id="news-icon" transform="translate(228.000000, 684.333333)">
            <rect id="icon_bg" x="0" y="0" width="22" height="22"></rect>
            <g id="piao" fill="#4A4A4A" fill-rule="nonzero">
                <path d="M9.053699,21.9254404 C8.49646377,21.9254404 7.97454627,21.7056856 7.58526644,21.3062029 L5.91591527,19.5850524 C5.61453735,19.2742564 5.62160089,18.7798082 5.9308272,18.4768606 C6.28086511,18.135456 6.47628986,17.67868 6.48178372,17.1897258 C6.48727759,16.7015563 6.30205574,16.2408562 5.96065106,15.8916031 C5.27627202,15.1907425 4.07076031,15.1766154 3.37303902,15.8594247 C3.22391973,16.0054047 2.99710145,16.081534 2.81423411,16.0831037 C2.60546711,16.0799643 2.40611817,15.9952018 2.26092308,15.8445128 L0.593926421,14.1265017 C0.213279822,13.7387915 0.00451282051,13.2207982 0.010006689,12.6721962 C0.0162853958,12.1228094 0.236040134,11.6095251 0.629244147,11.2249543 L11.505534,0.567634337 C12.2950814,-0.200722408 13.6434337,-0.183455964 14.4094359,0.599812709 L16.0803567,2.32174805 C16.3817347,2.63254404 16.3746711,3.12777703 16.06466,3.4299398 C15.7154069,3.77212932 15.5191973,4.22969008 15.5137035,4.71864437 C15.5082096,5.20759866 15.6934314,5.66829877 16.0340513,6.01833668 C16.7176455,6.71684281 17.923942,6.73253958 18.6240178,6.04894537 C18.7731371,5.90296544 18.9842586,5.84331773 19.1828227,5.82526644 C19.3915897,5.8284058 19.5909387,5.91395318 19.7353489,6.0638573 L21.4015608,7.78343813 C21.7814225,8.16879376 21.9901895,8.68521739 21.9854805,9.23303456 C21.9807715,9.7824214 21.7618016,10.2972754 21.3693824,10.6818462 L10.4891683,21.3407358 C10.1014582,21.718243 9.5920981,21.9254404 9.053699,21.9254404 Z M7.52483389,18.9885753 L8.71072464,20.2121382 C8.88888294,20.3934359 9.20674247,20.3997146 9.39274916,20.2176321 L20.2706087,9.56188183 C20.3632196,9.47084058 20.415019,9.34919064 20.4165886,9.21969231 C20.4173735,9.09176366 20.3687135,8.97168339 20.2792419,8.88064214 L19.0933512,7.65629431 C18.5706488,7.97101449 17.9694627,8.1389699 17.3447313,8.1389699 C16.4209766,8.1389699 15.5576544,7.77558974 14.9117324,7.11475585 C14.2767982,6.46569454 13.9338239,5.60865106 13.9440268,4.70059309 C13.9518751,4.05859532 14.1347425,3.4464214 14.4714381,2.9182252 L13.2847625,1.69544705 C13.1081739,1.51571906 12.7879599,1.5102252 12.6019532,1.69073802 L1.72644816,12.3472731 C1.6330524,12.4383144 1.58125307,12.5599643 1.57968339,12.6886778 C1.57889855,12.8173913 1.62755853,12.9382564 1.7170301,13.0308673 L2.90213601,14.2528606 C3.42483835,13.9381405 4.02523969,13.7701851 4.64918618,13.7701851 C5.57294091,13.7701851 6.43783278,14.1343501 7.0829699,14.7959688 C7.71711929,15.4442453 8.06166332,16.3012887 8.05067559,17.2085619 C8.04361204,17.84899 7.8607447,18.4611639 7.52483389,18.9885753 Z M7.19127759,12.7593133 C6.99035897,12.7593133 6.78944036,12.6823991 6.63639688,12.5293556 C6.32952508,12.2224838 6.32952508,11.726466 6.63639688,11.4195942 L11.0181494,7.03705686 C11.3250212,6.73018506 11.8218239,6.73018506 12.1286957,7.03705686 C12.4347826,7.34314381 12.4347826,7.83994649 12.1286957,8.14681828 L7.74694314,12.5293556 C7.59311483,12.6823991 7.39219621,12.7593133 7.19127759,12.7593133 Z M9.53637458,15.1036254 C9.33545596,15.1036254 9.13453735,15.0267113 8.98149387,14.8736678 C8.67462207,14.566796 8.67462207,14.0707781 8.98149387,13.7639064 L13.3632464,9.38136901 C13.6701182,9.07449721 14.166136,9.07449721 14.4730078,9.38136901 C14.7798796,9.68745596 14.7798796,10.1842586 14.4730078,10.4911304 L10.0912553,14.8736678 C9.93742698,15.0267113 9.73650836,15.1036254 9.53637458,15.1036254 Z" id="Shape"></path>
            </g>
        </g>
    </g>
</svg>