<?xml version="1.0" encoding="UTF-8"?>
<svg width="50px" height="51px" viewBox="0 0 50 51" version="1.1" xmlns="http://www.w3.org/2000/svg" xmlns:xlink="http://www.w3.org/1999/xlink">
    <!-- Generator: Sketch 48 (47235) - http://www.bohemiancoding.com/sketch -->
    <title>Rectangle 46</title>
    <desc>Created with Sketch.</desc>
    <defs>
        <linearGradient x1="50%" y1="0%" x2="50%" y2="100%" id="linearGradient-1">
            <stop stop-color="#8C80FF" offset="0%"></stop>
            <stop stop-color="#C86DD7" offset="100%"></stop>
        </linearGradient>
    </defs>
    <g id="01-Home-Function" stroke="none" stroke-width="1" fill="none" fill-rule="evenodd" transform="translate(-120.000000, -525.000000)">
        <g id="iphone-x-white-bg">
            <rect id="bg" x="0" y="0" width="375" height="812"></rect>
            <g id="Bars/Home-Indicator/Home-Indicator---On-Light" transform="translate(0.000000, 778.000000)" fill="#000000" fill-rule="evenodd">
                <rect id="Rectangle-24" x="121" y="20" width="134" height="5" rx="2.5"></rect>
            </g>
            <g id="Bars/Status-Bar/Light-Status-Bar">
                <g id="Battery" stroke-width="1" fill-rule="evenodd" transform="translate(336.000000, 17.000000)">
                    <rect id="Border" stroke="#000000" opacity="0.35" x="0.5" y="0.833333333" width="21" height="10.3333333" rx="2.66666675"></rect>
                    <path d="M23,4 L23,8 C23.8047311,7.66122348 24.328038,6.87313328 24.328038,6 C24.328038,5.12686672 23.8047311,4.33877652 23,4" id="Cap" fill="#000000" fill-rule="nonzero" opacity="0.4"></path>
                    <rect id="Capacity" fill="#000000" fill-rule="nonzero" x="2" y="2.33333333" width="18" height="7.33333333" rx="1.33333337"></rect>
                </g>
                <path d="M323.330333,19.608 C325.546226,19.6080971 327.677386,20.4595347 329.283333,21.9863333 C329.404265,22.1042079 329.597562,22.102721 329.716667,21.983 L330.872667,20.8163333 C330.932975,20.7556112 330.966599,20.6733595 330.966098,20.5877792 C330.965598,20.5021988 330.931014,20.420346 330.87,20.3603333 C326.654902,16.3207858 320.005098,16.3207858 315.79,20.3603333 C315.728941,20.4203015 315.694297,20.5021294 315.693734,20.5877099 C315.693171,20.6732903 315.726736,20.755567 315.787,20.8163333 L316.943333,21.983 C317.062362,22.1029017 317.255808,22.1043897 317.376667,21.9863333 C318.982819,20.4594344 321.114223,19.6079944 323.330333,19.608 Z M323.330333,23.4036667 C324.547823,23.4035921 325.721865,23.8561245 326.624333,24.6733333 C326.746397,24.7893139 326.938678,24.7867994 327.057667,24.6676667 L328.212333,23.501 C328.273141,23.439805 328.30688,23.3567887 328.306003,23.2705239 C328.305126,23.1842592 328.269706,23.101946 328.207667,23.042 C325.459468,20.4856177 321.203532,20.4856177 318.455333,23.042 C318.393256,23.1019453 318.357837,23.1842997 318.357023,23.2705923 C318.356208,23.356885 318.390065,23.4398934 318.451,23.501 L319.605333,24.6676667 C319.724322,24.7867994 319.916603,24.7893139 320.038667,24.6733333 C320.940539,23.8566645 322.113649,23.4041708 323.330333,23.4036667 Z M325.549333,26.188 C325.611087,26.127394 325.645095,26.0439919 325.643328,25.957485 C325.641561,25.8709782 325.604176,25.7890342 325.54,25.731 C324.264428,24.6521162 322.396238,24.6521162 321.120667,25.731 C321.056446,25.7889875 321.019,25.8709057 321.01717,25.957413 C321.01534,26.0439203 321.049289,26.1273487 321.111,26.188 L323.108667,28.2036667 C323.167217,28.2629057 323.247042,28.2962443 323.330333,28.2962443 C323.413624,28.2962443 323.49345,28.2629057 323.552,28.2036667 L325.549333,26.188 Z" id="Wifi" fill="#000000" fill-rule="nonzero"></path>
                <path d="M294.666667,24.3333333 L295.666667,24.3333333 C296.218951,24.3333333 296.666667,24.7810486 296.666667,25.3333333 L296.666667,27.3333333 C296.666667,27.8856181 296.218951,28.3333333 295.666667,28.3333333 L294.666667,28.3333333 C294.114382,28.3333333 293.666667,27.8856181 293.666667,27.3333333 L293.666667,25.3333333 C293.666667,24.7810486 294.114382,24.3333333 294.666667,24.3333333 Z M299.333333,22.3333333 L300.333333,22.3333333 C300.885618,22.3333333 301.333333,22.7810486 301.333333,23.3333333 L301.333333,27.3333333 C301.333333,27.8856181 300.885618,28.3333333 300.333333,28.3333333 L299.333333,28.3333333 C298.781049,28.3333333 298.333333,27.8856181 298.333333,27.3333333 L298.333333,23.3333333 C298.333333,22.7810486 298.781049,22.3333333 299.333333,22.3333333 Z M304,20 L305,20 C305.552285,20 306,20.4477153 306,21 L306,27.3333333 C306,27.8856181 305.552285,28.3333333 305,28.3333333 L304,28.3333333 C303.447715,28.3333333 303,27.8856181 303,27.3333333 L303,21 C303,20.4477153 303.447715,20 304,20 Z M308.666667,17.6666667 L309.666667,17.6666667 C310.218951,17.6666667 310.666667,18.1143819 310.666667,18.6666667 L310.666667,27.3333333 C310.666667,27.8856181 310.218951,28.3333333 309.666667,28.3333333 L308.666667,28.3333333 C308.114382,28.3333333 307.666667,27.8856181 307.666667,27.3333333 L307.666667,18.6666667 C307.666667,18.1143819 308.114382,17.6666667 308.666667,17.6666667 Z" id="Cellular-Connection" fill="#000000" fill-rule="nonzero"></path>
                <g id="Bars/_/Time-Black" transform="translate(21.000000, 9.000000)" fill="#000000" font-family=".AppleSystemUIFont" font-size="14" font-weight="normal" letter-spacing="-0.280000001">
                    <text id="↳-Time">
                        <tspan x="13.4131641" y="21">9:4</tspan>
                        <tspan x="34.2089062" y="21">1</tspan>
                    </text>
                </g>
            </g>
        </g>
        <rect id="Rectangle-4" fill="url(#linearGradient-1)" x="120" y="525.666667" width="50" height="50" rx="22"></rect>
        <g id="news-icon" transform="translate(134.000000, 539.666667)">
            <rect id="icon_bg" x="0" y="0" width="22" height="22"></rect>
            <g id="Wallet_my_zzt" fill="#FFFFFF" fill-rule="nonzero">
                <path d="M21.9999668,19.797854 C21.9999668,20.1047472 21.9477721,20.3909692 21.8426444,20.6571844 C21.7375166,20.9226983 21.5879459,21.1566887 21.3945596,21.358528 C21.2012103,21.5603304 20.974824,21.7176159 20.7162866,21.8296463 C20.4576753,21.9431902 20.174554,21.999999 19.867587,21.999999 L2.27811158,21.999999 C1.97081236,21.999999 1.68038228,21.9431902 1.40567709,21.8296463 C1.13100879,21.7168408 0.888897604,21.5595552 0.678273063,21.358528 C0.468054555,21.1575008 0.302279076,20.9234735 0.181057379,20.6571844 C0.0606108379,20.3902309 7.63278329e-17,20.1047472 7.63278329e-17,19.797854 L0,6.93639401 C0,6.32293986 0.214057443,5.80272748 0.641840117,5.37494482 C1.07036104,4.94756821 1.59097946,4.73428592 2.20524569,4.73428592 L19.7955332,4.73428592 C20.4094303,4.73428592 20.9303809,4.94756818 21.3585696,5.37494482 C21.7859463,5.8027275 22.0000037,6.32297677 22.0000037,6.93639401 L22.0000037,10.2277256 L16.5000304,10.2277256 C15.8861333,10.2277256 15.3651089,10.437575 14.936994,10.8572737 C14.5088053,11.2766034 14.2955599,11.7933828 14.2955599,12.4060618 C14.3108418,12.8257606 14.3998756,13.1968083 14.5618121,13.5198323 C14.6914499,13.7937624 14.9047691,14.0438467 15.2039475,14.2698639 C15.5024984,14.4962133 15.9344891,14.609388 16.4999935,14.609388 L21.9999299,14.609388 L21.9999299,19.7993674 L21.9999299,19.797854 L21.9999668,19.797854 Z M18.8579107,3.9285898 L7.07138889,3.9285898 C7.94382338,3.47662923 9.40128915,2.7339064 10.1766799,2.31420763 C10.855359,1.9585526 11.525585,1.60367277 12.1885024,1.24919895 C12.8499063,0.894688223 13.3670549,0.620019941 13.7384717,0.425895422 C14.3039761,0.119371355 14.8088696,-0.0218201758 15.2531154,0.00272686133 C15.696586,0.0264987207 16.0725431,0.103240479 16.3794732,0.23254608 C16.7339839,0.410207488 17.0416523,0.643828711 17.3002635,0.933852734 L18.8579107,3.9285898 Z M15.4096627,12.4060618 C15.4096627,12.0995378 15.5155655,11.8413326 15.7250089,11.6315201 C15.9345261,11.4220399 16.1938386,11.3172813 16.5000304,11.3172813 C16.8069236,11.3172813 17.065461,11.4220399 17.2757164,11.6315201 C17.4852336,11.8413695 17.5903244,12.0995747 17.5903244,12.4060618 C17.5903244,12.7126228 17.4851967,12.975036 17.2757164,13.1925633 C17.0654979,13.4108657 16.8069605,13.5198323 16.5000304,13.5198323 C16.1938386,13.5198323 15.9345261,13.4108657 15.7250089,13.1925633 C15.5155655,12.975036 15.4096627,12.7125859 15.4096627,12.4060618 Z" id="Shape"></path>
            </g>
        </g>
    </g>
</svg>