<?xml version="1.0" encoding="UTF-8"?>
<svg width="50px" height="51px" viewBox="0 0 50 51" version="1.1" xmlns="http://www.w3.org/2000/svg" xmlns:xlink="http://www.w3.org/1999/xlink">
    <!-- Generator: Sketch 48 (47235) - http://www.bohemiancoding.com/sketch -->
    <title>Rectangle 48</title>
    <desc>Created with Sketch.</desc>
    <defs>
        <linearGradient x1="50%" y1="0%" x2="50%" y2="100%" id="linearGradient-1">
            <stop stop-color="#E7994C" offset="0%"></stop>
            <stop stop-color="#CB6025" offset="100%"></stop>
        </linearGradient>
    </defs>
    <g id="01-Home-Function" stroke="none" stroke-width="1" fill="none" fill-rule="evenodd" transform="translate(-25.000000, -670.000000)">
        <g id="iphone-x-white-bg">
            <rect id="bg" x="0" y="0" width="375" height="812"></rect>
            <g id="Bars/Home-Indicator/Home-Indicator---On-Light" transform="translate(0.000000, 778.000000)" fill="#000000" fill-rule="evenodd">
                <rect id="Rectangle-24" x="121" y="20" width="134" height="5" rx="2.5"></rect>
            </g>
            <g id="Bars/Status-Bar/Light-Status-Bar">
                <g id="Battery" stroke-width="1" fill-rule="evenodd" transform="translate(336.000000, 17.000000)">
                    <rect id="Border" stroke="#000000" opacity="0.35" x="0.5" y="0.833333333" width="21" height="10.3333333" rx="2.66666675"></rect>
                    <path d="M23,4 L23,8 C23.8047311,7.66122348 24.328038,6.87313328 24.328038,6 C24.328038,5.12686672 23.8047311,4.33877652 23,4" id="Cap" fill="#000000" fill-rule="nonzero" opacity="0.4"></path>
                    <rect id="Capacity" fill="#000000" fill-rule="nonzero" x="2" y="2.33333333" width="18" height="7.33333333" rx="1.33333337"></rect>
                </g>
                <path d="M323.330333,19.608 C325.546226,19.6080971 327.677386,20.4595347 329.283333,21.9863333 C329.404265,22.1042079 329.597562,22.102721 329.716667,21.983 L330.872667,20.8163333 C330.932975,20.7556112 330.966599,20.6733595 330.966098,20.5877792 C330.965598,20.5021988 330.931014,20.420346 330.87,20.3603333 C326.654902,16.3207858 320.005098,16.3207858 315.79,20.3603333 C315.728941,20.4203015 315.694297,20.5021294 315.693734,20.5877099 C315.693171,20.6732903 315.726736,20.755567 315.787,20.8163333 L316.943333,21.983 C317.062362,22.1029017 317.255808,22.1043897 317.376667,21.9863333 C318.982819,20.4594344 321.114223,19.6079944 323.330333,19.608 Z M323.330333,23.4036667 C324.547823,23.4035921 325.721865,23.8561245 326.624333,24.6733333 C326.746397,24.7893139 326.938678,24.7867994 327.057667,24.6676667 L328.212333,23.501 C328.273141,23.439805 328.30688,23.3567887 328.306003,23.2705239 C328.305126,23.1842592 328.269706,23.101946 328.207667,23.042 C325.459468,20.4856177 321.203532,20.4856177 318.455333,23.042 C318.393256,23.1019453 318.357837,23.1842997 318.357023,23.2705923 C318.356208,23.356885 318.390065,23.4398934 318.451,23.501 L319.605333,24.6676667 C319.724322,24.7867994 319.916603,24.7893139 320.038667,24.6733333 C320.940539,23.8566645 322.113649,23.4041708 323.330333,23.4036667 Z M325.549333,26.188 C325.611087,26.127394 325.645095,26.0439919 325.643328,25.957485 C325.641561,25.8709782 325.604176,25.7890342 325.54,25.731 C324.264428,24.6521162 322.396238,24.6521162 321.120667,25.731 C321.056446,25.7889875 321.019,25.8709057 321.01717,25.957413 C321.01534,26.0439203 321.049289,26.1273487 321.111,26.188 L323.108667,28.2036667 C323.167217,28.2629057 323.247042,28.2962443 323.330333,28.2962443 C323.413624,28.2962443 323.49345,28.2629057 323.552,28.2036667 L325.549333,26.188 Z" id="Wifi" fill="#000000" fill-rule="nonzero"></path>
                <path d="M294.666667,24.3333333 L295.666667,24.3333333 C296.218951,24.3333333 296.666667,24.7810486 296.666667,25.3333333 L296.666667,27.3333333 C296.666667,27.8856181 296.218951,28.3333333 295.666667,28.3333333 L294.666667,28.3333333 C294.114382,28.3333333 293.666667,27.8856181 293.666667,27.3333333 L293.666667,25.3333333 C293.666667,24.7810486 294.114382,24.3333333 294.666667,24.3333333 Z M299.333333,22.3333333 L300.333333,22.3333333 C300.885618,22.3333333 301.333333,22.7810486 301.333333,23.3333333 L301.333333,27.3333333 C301.333333,27.8856181 300.885618,28.3333333 300.333333,28.3333333 L299.333333,28.3333333 C298.781049,28.3333333 298.333333,27.8856181 298.333333,27.3333333 L298.333333,23.3333333 C298.333333,22.7810486 298.781049,22.3333333 299.333333,22.3333333 Z M304,20 L305,20 C305.552285,20 306,20.4477153 306,21 L306,27.3333333 C306,27.8856181 305.552285,28.3333333 305,28.3333333 L304,28.3333333 C303.447715,28.3333333 303,27.8856181 303,27.3333333 L303,21 C303,20.4477153 303.447715,20 304,20 Z M308.666667,17.6666667 L309.666667,17.6666667 C310.218951,17.6666667 310.666667,18.1143819 310.666667,18.6666667 L310.666667,27.3333333 C310.666667,27.8856181 310.218951,28.3333333 309.666667,28.3333333 L308.666667,28.3333333 C308.114382,28.3333333 307.666667,27.8856181 307.666667,27.3333333 L307.666667,18.6666667 C307.666667,18.1143819 308.114382,17.6666667 308.666667,17.6666667 Z" id="Cellular-Connection" fill="#000000" fill-rule="nonzero"></path>
                <g id="Bars/_/Time-Black" transform="translate(21.000000, 9.000000)" fill="#000000" font-family=".AppleSystemUIFont" font-size="14" font-weight="normal" letter-spacing="-0.280000001">
                    <text id="↳-Time">
                        <tspan x="13.4131641" y="21">9:4</tspan>
                        <tspan x="34.2089062" y="21">1</tspan>
                    </text>
                </g>
            </g>
        </g>
        <rect id="Rectangle-4" fill="url(#linearGradient-1)" x="25" y="670.333333" width="50" height="50" rx="22"></rect>
        <g id="news-icon" transform="translate(39.000000, 684.333333)">
            <rect id="icon_bg" x="0" y="0" width="22" height="22"></rect>
            <g id="workflow" fill="#FFFFFF" fill-rule="nonzero">
                <path d="M18.1616499,9.56521739 L17.2051282,9.56521739 C16.6778149,9.56521739 16.2486065,9.13846154 16.2486065,8.60869565 C16.2486065,8.08138239 16.6753623,7.65217391 17.2051282,7.65217391 L18.1616499,7.65217391 C19.2162765,7.65217391 20.0722408,6.79620959 20.0722408,5.74158305 C20.0722408,4.68695652 19.2162765,3.8309922 18.1616499,3.8309922 L17.2051282,3.8309922 C16.6778149,3.8309922 16.2486065,3.40178372 16.2486065,2.87447046 C16.2486065,2.34715719 16.6753623,1.91794872 17.2051282,1.91794872 L18.1616499,1.91794872 C20.2733556,1.91794872 21.9828317,3.62987737 21.9828317,5.73913043 C21.9828317,7.8483835 20.2733556,9.56521739 18.1616499,9.56521739 Z M14.8187291,21.0312152 L7.17391304,21.0312152 C6.64659978,21.0312152 6.2173913,20.6020067 6.2173913,20.0746934 L6.2173913,16.2535117 C6.2173913,15.7261984 6.64414716,15.29699 7.17391304,15.29699 L14.8162765,15.29699 C15.3435897,15.29699 15.7727982,15.7237458 15.7727982,16.2535117 L15.7727982,20.0746934 C15.7727982,20.6044593 15.3460424,21.0312152 14.8187291,21.0312152 Z M12.9081382,17.2100334 L9.0845039,17.2100334 C8.55719064,17.2100334 8.12798216,17.6367893 8.12798216,18.1665552 C8.12798216,18.6938685 8.55473802,19.1230769 9.0845039,19.1230769 L12.9056856,19.1230769 C13.4329989,19.1230769 13.8622074,18.6963211 13.8622074,18.1665552 C13.8622074,17.6367893 13.4354515,17.2100334 12.9081382,17.2100334 Z M14.8187291,13.3888517 L7.17391304,13.3888517 C6.64659978,13.3888517 6.2173913,12.9596433 6.2173913,12.43233 L6.2173913,8.61114827 C6.2173913,8.08383501 6.64414716,7.65462653 7.17391304,7.65462653 L14.8162765,7.65462653 C15.3435897,7.65462653 15.7727982,8.08138239 15.7727982,8.61114827 L15.7727982,12.43233 C15.7727982,12.9596433 15.3460424,13.3888517 14.8187291,13.3888517 Z M12.9081382,9.56521739 L9.0845039,9.56521739 C8.55719064,9.56521739 8.12798216,9.99197324 8.12798216,10.5217391 C8.12798216,11.0490524 8.55473802,11.4782609 9.0845039,11.4782609 L12.9056856,11.4782609 C13.4329989,11.4782609 13.8622074,11.051505 13.8622074,10.5217391 C13.8622074,9.99442586 13.4354515,9.56521739 12.9081382,9.56521739 Z M14.8187291,5.74403567 L7.17391304,5.74403567 C6.64659978,5.74403567 6.2173913,5.3148272 6.2173913,4.78751394 L6.2173913,0.968784838 C6.2173913,0.441471572 6.64414716,0.0122630992 7.17391304,0.0122630992 L14.8162765,0.0122630992 C15.3435897,0.0122630992 15.7727982,0.439018952 15.7727982,0.968784838 L15.7727982,4.78996656 C15.7727982,5.31727982 15.3460424,5.74403567 14.8187291,5.74403567 Z M12.9081382,1.92285396 L9.0845039,1.92285396 C8.55719064,1.92285396 8.12798216,2.34960981 8.12798216,2.8793757 C8.12798216,3.40668896 8.55473802,3.83589744 9.0845039,3.83589744 L12.9056856,3.83589744 C13.4329989,3.83589744 13.8622074,3.40668896 13.8622074,2.8793757 C13.8622074,2.34960981 13.4354515,1.92285396 12.9081382,1.92285396 Z M3.8309922,16.2535117 L4.78751394,16.2535117 C5.3148272,16.2535117 5.74403567,16.6802676 5.74403567,17.2100334 C5.74403567,17.7373467 5.31727982,18.1665552 4.78751394,18.1665552 L3.8309922,18.1665552 C1.71928651,18.1665552 0.00981047938,16.4546265 0.00981047938,14.3453735 C0.00981047938,12.2336678 1.72173913,10.5241918 3.8309922,10.5241918 L4.78751394,10.5241918 C5.3148272,10.5241918 5.74403567,10.9509476 5.74403567,11.4807135 C5.74403567,12.0080268 5.31727982,12.4372352 4.78751394,12.4372352 L3.8309922,12.4372352 C2.77636566,12.4372352 1.92040134,13.2931996 1.92040134,14.3478261 C1.92040134,15.3975474 2.77636566,16.2535117 3.8309922,16.2535117 Z" id="Shape"></path>
            </g>
        </g>
    </g>
</svg>