<?xml version="1.0" encoding="UTF-8"?>
<svg width="30px" height="30px" viewBox="0 0 30 30" version="1.1" xmlns="http://www.w3.org/2000/svg" xmlns:xlink="http://www.w3.org/1999/xlink">
    <!-- Generator: Sketch 48 (47235) - http://www.bohemiancoding.com/sketch -->
    <title>app</title>
    <desc>Created with Sketch.</desc>
    <defs></defs>
    <g id="01-Home" stroke="none" stroke-width="1" fill="none" fill-rule="evenodd" transform="translate(-307.000000, -106.000000)">
        <g id="app" transform="translate(307.000000, 106.000000)" fill="#FFFFFF" fill-rule="nonzero">
            <path d="M26.8368345,17.1372927 L15.8009946,17.1372927 C15.4198418,17.1372927 15.1111252,17.4463542 15.1111252,17.827162 L15.1111252,28.863002 C15.1111252,29.2441548 15.4198417,29.5528713 15.8009946,29.5528713 L26.8368345,29.5528713 C27.2176424,29.5528713 27.5267039,29.2441548 27.5267039,28.863002 L27.5267039,17.827162 C27.5267039,17.4463542 27.2176424,17.1372927 26.8368345,17.1372927 Z M26.1469652,28.1731327 L16.4908639,28.1731327 L16.4908639,18.5170314 L26.1469652,18.5170314 L26.1469652,28.1731327 Z" id="Shape"></path>
            <path d="M11.7507716,17.1372927 L0.714931685,17.1372927 C0.33412382,17.1372927 0.0250623371,17.4463542 0.0250623371,17.827162 L0.0250623371,28.863002 C0.0250623371,29.2441548 0.33412382,29.5528713 0.714931685,29.5528713 L11.7507716,29.5528713 C12.1319244,29.5528713 12.440641,29.2441548 12.440641,28.863002 L12.440641,17.827162 C12.440641,17.4463542 12.1319244,17.1372927 11.7507716,17.1372927 Z M11.0609023,28.1731327 L1.40480103,28.1731327 L1.40480103,18.5170314 L11.0609023,18.5170314 L11.0609023,28.1731327 Z" id="Shape"></path>
            <path d="M11.7507716,1.9753442 L0.714931685,1.9753442 C0.33412382,1.9753442 0.0250623371,2.28406072 0.0250623371,2.66521355 L0.0250623371,13.7007086 C0.0250623371,14.0818614 0.33412382,14.3905779 0.714931685,14.3905779 L11.7507716,14.3905779 C12.1319244,14.3905779 12.440641,14.0818614 12.440641,13.7007086 L12.440641,2.66521355 C12.440641,2.28406072 12.1319244,1.9753442 11.7507716,1.9753442 Z M11.0609023,13.0108392 L1.40480103,13.0108392 L1.40480103,3.3550829 L11.0609023,3.3550829 L11.0609023,13.0108392 Z" id="Shape"></path>
            <path d="M29.7818868,7.4408341 L22.5537807,0.212728011 C22.4244302,0.0833775169 22.2488584,0.0105963034 22.066043,0.0105963034 C21.8828827,0.0105963034 21.7076559,0.0833775169 21.5779604,0.212728011 L14.3498544,7.4408341 C14.0804604,7.71022807 14.0804604,8.14726031 14.3498544,8.41665428 L21.5779604,15.6447604 C21.7128299,15.7792849 21.8894365,15.8468921 22.066043,15.8468921 C22.2423047,15.8468921 22.4189112,15.7792849 22.5537807,15.6447604 L29.7818868,8.41665428 C29.9112372,8.28730379 29.9840185,8.11173202 29.9840185,7.92891664 C29.9840185,7.74575636 29.9112372,7.5701846 29.7818868,7.4408341 Z M22.0660431,14.1812026 L15.8134122,7.92891664 L22.0660431,1.6762858 L28.318329,7.92891664 L22.0660431,14.1812026 Z" id="Shape"></path>
        </g>
    </g>
</svg>