<?xml version="1.0" encoding="UTF-8"?>
<svg width="31px" height="32px" viewBox="0 0 31 32" version="1.1" xmlns="http://www.w3.org/2000/svg" xmlns:xlink="http://www.w3.org/1999/xlink">
    <!-- Generator: Sketch 48 (47235) - http://www.bohemiancoding.com/sketch -->
    <title>news-icon</title>
    <desc>Created with Sketch.</desc>
    <defs></defs>
    <g id="01-Home" stroke="none" stroke-width="1" fill="none" fill-rule="evenodd" transform="translate(-117.000000, -105.000000)">
        <g id="news-icon" transform="translate(118.000000, 106.000000)">
            <rect id="icon_bg" x="0" y="0" width="30" height="30"></rect>
            <g id="expensesRecord" fill="#FFFFFF" fill-rule="nonzero" stroke="#FFFFFF" stroke-width="0.5">
                <path d="M26.551495,11.6810631 L24.8903654,11.6810631 L24.8903654,10.8239203 C24.8903654,8.19601329 24.8936877,5.56478405 24.8903654,2.93687708 C24.8903654,1.93687708 24.6744186,1.70431894 23.7142857,1.70431894 C16.7607973,1.70099668 9.81063123,1.70099668 2.85714286,1.70431894 C1.94019934,1.70431894 1.69767442,1.95016611 1.69767442,2.88704319 C1.69435216,10.4950166 1.69435216,18.1063123 1.69767442,25.717608 C1.69767442,26.6445183 1.94019934,26.8704319 2.87707641,26.8704319 C6.03654485,26.8737542 9.19601329,26.8704319 12.358804,26.8704319 L13.2425249,26.8704319 L13.2425249,28.4916944 C12.9933555,28.5083056 12.730897,28.538206 12.4651163,28.538206 C9.25581395,28.5415282 6.04318937,28.5448505 2.83388704,28.538206 C0.930232558,28.5348837 0.023255814,27.6079734 0.023255814,25.6810631 L0.023255814,2.85049834 C0.023255814,0.956810631 0.970099668,0.023255814 2.87707641,0.023255814 L23.7342193,0.023255814 C25.6445183,0.023255814 26.551495,0.936877076 26.5548173,2.86378738 C26.5548173,5.77408638 26.551495,8.67774086 26.551495,11.6810631 Z" id="Shape"></path>
                <path d="M29.6345515,21.0398671 L28.0631229,21.0398671 C27.9003322,18.717608 26.9767442,16.7740864 25.0299003,15.4053156 C23.8139535,14.5481728 22.4451827,14.1295681 20.9700997,14.1627907 C17.7641196,14.2325581 15.1129568,16.3953488 14.345515,19.5116279 C13.6212625,22.4518272 14.9634551,25.5581395 17.6245847,27.10299 C20.2392027,28.6212625 23.6013289,28.2591362 25.8039867,26.1262458 C25.0265781,25.4651163 24.2491694,24.8039867 23.4684385,24.1428571 C23.5282392,24.0431894 23.5880399,23.9401993 23.6478405,23.8405316 L29.5448505,23.8405316 L29.5448505,29.9734219 C28.6777409,29 27.9302326,28.1594684 27.1495017,27.2790698 C25.0332226,29.1262458 22.7607973,29.9501661 20.1627907,29.6710963 C18.0797342,29.448505 16.2990033,28.5581395 14.8438538,27.0398671 C12.0930233,24.1694352 11.6843854,19.7475083 13.8538206,16.4119601 C16.0332226,13.0631229 20.2159468,11.6378738 23.9634551,12.9667774 C27.3820598,14.1827243 29.986711,17.8671096 29.6345515,21.0398671 Z M10.641196,17.5481728 L8.98006645,17.5481728 L8.98006645,13.4053156 L5.22923588,13.4053156 L5.22923588,11.7209302 L8.90365449,11.7209302 L8.90365449,8.73421927 L5.23255814,8.73421927 L5.23255814,7.05980066 C5.54152824,7.03654485 5.85714286,7.00996678 6.32225914,6.97342193 C5.82392027,6.38538206 5.39534884,5.88039867 4.93023256,5.33222591 C5.3654485,4.94684385 5.75415282,4.60797342 6.17940199,4.23255814 C6.90033223,5.04983389 7.58139535,5.82392027 8.26910299,6.59468439 C8.83388704,7.22259136 10.3953488,7.2192691 10.9667774,6.58471761 C11.654485,5.81727575 12.3322259,5.04318937 13.0498339,4.23255814 C13.4850498,4.61461794 13.8737542,4.95681063 14.3056478,5.33887043 C13.8438538,5.87375415 13.4219269,6.3654485 12.8870432,6.9833887 C13.448505,7.00996678 13.8770764,7.02657807 14.3687708,7.04983389 L14.3687708,8.71096346 C13.358804,8.71096346 12.3787375,8.74086379 11.4019934,8.70099668 C10.8106312,8.67774086 10.5847176,8.86378738 10.627907,9.4717608 C10.6744186,10.1727575 10.6378738,10.8770764 10.6378738,11.6677741 L14.3654485,11.6677741 L14.3654485,13.3787375 C13.3687708,13.3787375 12.3887043,13.4086379 11.4119601,13.3687708 C10.8305648,13.345515 10.6013289,13.5116279 10.6245847,14.1295681 C10.6744186,15.2491694 10.641196,16.3820598 10.641196,17.5481728 Z" id="Shape"></path>
                <path d="M21.5282392,20.2491694 C22.2358804,20.2491694 22.8172757,20.2890365 23.3887043,20.2392027 C24.0431894,20.179402 24.2491694,20.4584718 24.1727575,21.0631229 C24.1395349,21.3289037 24.1428571,21.6013289 24.1295681,21.910299 L19.9136213,21.910299 L19.9136213,16.9169435 L21.5315615,16.9169435 C21.5282392,17.9966777 21.5282392,19.0664452 21.5282392,20.2491694 Z M4.81063123,22.2458472 L4.81063123,20.6910299 L10.8704319,20.6910299 L10.8704319,22.2458472 L4.81063123,22.2458472 Z M21.7807309,8.65780731 L16.89701,8.65780731 L16.89701,7.05980066 L21.7807309,7.05980066 L21.7807309,8.65780731 Z" id="Shape"></path>
            </g>
        </g>
    </g>
</svg>