<?xml version="1.0" encoding="UTF-8"?>
<svg width="200px" height="151px" viewBox="0 0 200 151" version="1.1" xmlns="http://www.w3.org/2000/svg" xmlns:xlink="http://www.w3.org/1999/xlink">
    <!-- Generator: Sketch 48 (47235) - http://www.bohemiancoding.com/sketch -->
    <title>empty</title>
    <desc>Created with Sketch.</desc>
    <defs></defs>
    <g id="01-Home-我发起的-空" stroke="none" stroke-width="1" fill="none" fill-rule="evenodd" transform="translate(-88.000000, -309.000000)">
        <g id="empty" transform="translate(88.000000, 309.000000)" fill-rule="nonzero">
            <path d="M51.8974359,11.0769231 L147.897436,11.0769231 L147.897436,91.8974359 L158.974359,91.8974359 L158.974359,3.28328205 C158.974359,1.47035897 157.50441,0 155.690872,0 L44.104,0 C42.2904615,0 40.8205128,1.46994872 40.8205128,3.28328205 L40.8205128,91.8974359 L51.8974359,91.8974359 L51.8974359,11.0769231 Z" id="Shape" fill="#CFE9B3"></path>
            <path d="M75.2820513,48.8205128 C75.2820513,51.5394531 77.4861879,53.7435897 80.2051282,53.7435897 C82.9240685,53.7435897 85.1282051,51.5394531 85.1282051,48.8205128 C85.1282051,46.1015725 82.9240685,43.8974359 80.2051282,43.8974359 C77.4861879,43.8974359 75.2820513,46.1015725 75.2820513,48.8205128 Z" id="Shape" fill="#DBDBD9"></path>
            <path d="M114.666667,48.8205128 C114.666667,51.5394531 116.870803,53.7435897 119.589744,53.7435897 C122.308684,53.7435897 124.512821,51.5394531 124.512821,48.8205128 C124.512821,46.1015725 122.308684,43.8974359 119.589744,43.8974359 C116.870803,43.8974359 114.666667,46.1015725 114.666667,48.8205128 Z" id="Shape" fill="#DBDBD9"></path>
            <path d="M119.794872,73.9487179 C119.794872,73.9487179 115.897436,63.5897436 100,63.5897436 C84.1025641,63.5897436 80.2051282,73.9487179 80.2051282,73.9487179 C80.2051282,73.9487179 89.1282051,70.3589744 100,70.3589744 C110.871795,70.3589744 119.794872,73.9487179 119.794872,73.9487179 Z" id="Shape" fill="#DBDBD9" transform="translate(100.000000, 68.769231) scale(1, -1) translate(-100.000000, -68.769231) "></path>
            <path d="M196.716103,98.0512821 L3.28389744,98.0512821 C1.47015385,98.0512821 0,99.5206154 0,101.333333 L0,147.076923 C0,148.891692 1.47015385,150.358974 3.28389744,150.358974 L196.716103,150.358974 C198.529641,150.358974 200,148.889641 200,147.076923 L200,101.333333 C200,99.5185641 198.529641,98.0512821 196.716103,98.0512821 Z M120.615385,129.230769 L79.5897436,129.230769 L79.5897436,119.384615 L120.615385,119.384615 L120.615385,129.230769 Z" id="Shape" fill="#D1E2F6"></path>
            <polygon id="Shape" fill="#CFE9B3" points="34.6666667 56.2051282 0.615384615 91.8974359 34.6666667 91.8974359"></polygon>
            <polygon id="Shape" fill="#CFE9B3" points="165.128205 56.2051282 165.128205 91.8974359 199.179487 91.8974359"></polygon>
        </g>
    </g>
</svg>