<?xml version="1.0" encoding="UTF-8"?>
<svg width="32px" height="34px" viewBox="0 0 32 34" version="1.1" xmlns="http://www.w3.org/2000/svg" xmlns:xlink="http://www.w3.org/1999/xlink">
    <!-- Generator: Sketch 48 (47235) - http://www.bohemiancoding.com/sketch -->
    <title>news-icon14</title>
    <desc>Created with Sketch.</desc>
    <defs></defs>
    <g id="01-Home" stroke="none" stroke-width="1" fill="none" fill-rule="evenodd" transform="translate(-38.000000, -104.000000)">
        <g id="news-icon" transform="translate(38.000000, 104.000000)">
            <rect id="icon_bg" x="0" y="1" width="32" height="32"></rect>
            <g id="records-consumption" transform="translate(2.909091, 1.000000)" fill="#FFFFFF" fill-rule="nonzero" stroke="#FFFFFF" stroke-width="0.5">
                <path d="M23.5835347,31.9736168 L2.89493202,31.9736168 C2.78997001,31.9736168 2.68652804,31.9690494 2.58383889,31.9561219 C2.50321195,31.9477545 2.4088974,31.9325469 2.31534289,31.9135319 C2.20353349,31.8884297 2.10769891,31.8625746 2.01642447,31.831385 C1.94112484,31.8085699 1.84681033,31.7720602 1.75401582,31.7302231 C1.66882874,31.6921933 1.58211444,31.6480761 1.49844739,31.5993987 C1.42542784,31.5583217 1.34328086,31.5058442 1.26418109,31.4495595 C1.19040151,31.3986022 1.11358185,31.3369901 1.04132233,31.273098 C0.976670206,31.2175733 0.909738009,31.1536812 0.843565812,31.0844618 C0.778913686,31.0167695 0.718061668,30.94451 0.658736861,30.8699704 C0.603212161,30.799991 0.549207534,30.7231713 0.496730117,30.6425444 C0.448045632,30.5657247 0.401648395,30.4805376 0.356011157,30.3930633 C0.311893991,30.3086362 0.275384215,30.2264892 0.239641614,30.1420622 C0.196284448,30.0325328 0.165102027,29.9412584 0.138479713,29.8477039 C0.113377435,29.7655569 0.0882823677,29.6651622 0.0692674439,29.560953 C0.0517725919,29.4711986 0.0365649507,29.3723239 0.0274375247,29.269642 C0.0183100987,29.1783676 0.0122227444,29.0764456 0.0122227444,28.9737637 L0.0122228161,7.05906486 C0.0122228161,6.95562289 0.0183029955,6.85370095 0.0281976323,6.75481912 C0.0365650583,6.66126461 0.0510126637,6.56238278 0.0700275516,6.46350813 C0.0875224036,6.36767354 0.113384717,6.26575161 0.143807139,6.16762981 C0.165109274,6.08928294 0.196291731,5.99953571 0.231274296,5.91130135 C0.274631462,5.80785937 0.311141238,5.72647239 0.350691085,5.6481327 C0.401655641,5.55153812 0.448052879,5.46787107 0.502050332,5.38648409 C0.549207605,5.31346454 0.603972269,5.23512484 0.663304215,5.15982522 C0.720348951,5.0883257 0.778920897,5.01911343 0.840525776,4.95370131 C0.915825399,4.87688165 0.982757596,4.81146949 1.05425711,4.74985743 C1.11434192,4.69661281 1.19192879,4.63576796 1.27255573,4.57872323 C1.34024796,4.53080596 1.41782762,4.48060857 1.50073467,4.43268413 C1.58668179,4.38248678 1.67186888,4.33988965 1.75858317,4.3010998 C1.84681751,4.26230996 1.93428466,4.22808025 2.0247991,4.19841787 C2.12063369,4.16723541 2.2141882,4.14137313 2.30850988,4.12159103 C2.40434447,4.10105607 2.50094622,4.08508126 2.59982088,4.07443376 C2.6971755,4.0645463 2.79605733,4.05921898 2.89569919,4.05921898 L4.83068861,4.05921898 C5.25131107,4.05921898 5.59129937,4.39996732 5.59129937,4.81982974 C5.59129937,5.23968499 5.25130389,5.5804405 4.83068861,5.5804405 L2.89569919,5.5804405 C2.84930196,5.5804405 2.80290472,5.58272057 2.75726748,5.58728789 C2.71315031,5.59184804 2.67055318,5.59945543 2.62796323,5.60858289 C2.58384606,5.61847035 2.5397289,5.63064506 2.49865898,5.64433263 C2.4621492,5.65650016 2.41955207,5.67323501 2.37696212,5.6914899 C2.34045234,5.70746472 2.30166249,5.72723964 2.26438554,5.74853464 C2.23016301,5.7690696 2.19060596,5.79341184 2.15409618,5.81927412 C2.11301909,5.8481765 2.08031659,5.87327157 2.04989417,5.89990106 C2.0027369,5.93945094 1.97155448,5.97216057 1.94036484,6.00487024 C1.91526257,6.03224542 1.88332011,6.06952237 1.85289769,6.10831222 C1.82475534,6.14253474 1.80117313,6.17904452 1.77607803,6.21708151 C1.74489557,6.26423878 1.72512065,6.3037958 1.70305848,6.34410569 C1.68404355,6.38289553 1.66122856,6.43233288 1.63992639,6.48329026 C1.63079896,6.50839254 1.61482411,6.55478978 1.6003765,6.60194701 C1.58364165,6.65823171 1.57299419,6.70234888 1.56462676,6.74569887 C1.55397926,6.7989435 1.54713191,6.84762081 1.54257177,6.89705812 C1.53648441,6.95486289 1.53344434,7.00658744 1.53344434,7.05907204 L1.53344434,28.973778 C1.53344434,29.0254954 1.53648445,29.0772199 1.54181177,29.1274245 C1.54713909,29.1844692 1.55473934,29.2323865 1.56310676,29.2795437 C1.57375426,29.3320283 1.58364172,29.3738654 1.59657643,29.4156954 C1.61483132,29.4795875 1.63156617,29.5259848 1.64830099,29.5708619 C1.66122856,29.5997643 1.68329073,29.6484416 1.70686576,29.6948389 C1.72436061,29.7290614 1.74489557,29.7693784 1.76999785,29.8066483 C1.7981402,29.8507654 1.82324248,29.8880352 1.85214483,29.9237778 C1.88332728,29.9640877 1.91299684,29.9990774 1.94341926,30.0317799 C1.97536172,30.0644896 2.00655135,30.095672 2.04154109,30.1260945 C2.07957091,30.159557 2.1122734,30.1854193 2.1457431,30.2090015 C2.18605299,30.2379039 2.22104273,30.2599589 2.25679247,30.2797338 C2.30470974,30.3078761 2.34198673,30.326131 2.37924936,30.3428659 C2.41803921,30.3603535 2.45454899,30.3748083 2.49029873,30.3862159 C2.55114357,30.406758 2.5937407,30.4174055 2.63481779,30.4265329 C2.66448018,30.4326203 2.71011742,30.4409877 2.75575462,30.4455478 C2.81127932,30.4523952 2.85310924,30.4531552 2.89418633,30.4531552 L23.5827891,30.4531552 C23.6253862,30.4531552 23.664936,30.4523952 23.707526,30.447075 C23.7660908,30.4409877 23.810968,30.4326203 23.8535651,30.4242528 C23.8862748,30.4166455 23.9296248,30.406758 23.9699347,30.3923032 C24.020132,30.3763284 24.0558818,30.3626408 24.0901115,30.346666 C24.1380288,30.325371 24.1752986,30.3063561 24.2110483,30.285814 C24.2551655,30.2607189 24.2916753,30.2371367 24.3274179,30.2120344 C24.3646877,30.1854121 24.4011975,30.1557497 24.43618,30.1260801 C24.4605222,30.1040179 24.4932319,30.0736027 24.5236543,30.040893 C24.5677715,29.9960158 24.5959138,29.9610261 24.6248162,29.9245235 C24.6453512,29.8979012 24.6696862,29.8651987 24.6909884,29.8302089 C24.7290182,29.7716442 24.7503132,29.7343672 24.7700953,29.6955773 C24.7906302,29.6560274 24.8104052,29.6141903 24.82714,29.5715932 C24.8499622,29.5153085 24.8651698,29.4711914 24.8780974,29.4255541 C24.8902649,29.384477 24.9024396,29.338087 24.9115599,29.2901697 C24.9229674,29.2316049 24.9298148,29.1814004 24.9351421,29.129683 C24.9404695,29.0787256 24.9419895,29.027001 24.9419895,28.9752764 L24.9419895,7.05904326 C24.9419895,7.00655867 24.9404695,6.95484126 24.9351421,6.90464391 C24.929822,6.85291935 24.9222074,6.80120194 24.9123199,6.75023738 C24.9024325,6.69775279 24.8902578,6.64907548 24.8765702,6.60191821 C24.8644027,6.56388839 24.8499479,6.51977123 24.831693,6.47641406 C24.809638,6.41860929 24.788343,6.3767722 24.7678009,6.33494228 C24.7503132,6.29995254 24.7282439,6.26268276 24.7046688,6.22693299 C24.667399,6.16684818 24.644584,6.13489851 24.6202418,6.10371609 C24.5966596,6.0748137 24.5662443,6.03678389 24.5320146,6.00103415 C24.4970248,5.96452438 24.4650824,5.93334192 24.4316127,5.90443957 C24.4011903,5.87781726 24.3646805,5.84891487 24.3274107,5.82229259 C24.2878608,5.79415024 24.2475437,5.76904796 24.2049538,5.7439529 C24.1790987,5.72949812 24.1403017,5.70972319 24.0992246,5.6914683 C24.0551074,5.67169338 24.0125175,5.65571857 23.9691603,5.64126378 C23.9402507,5.63213636 23.8953736,5.61920161 23.8497435,5.60932133 C23.8041063,5.59943387 23.7622763,5.59258648 23.7196792,5.58802633 C23.674042,5.58345901 23.6291648,5.58117894 23.5812475,5.58117894 L21.6462581,5.58117894 C21.2256428,5.58117894 20.8856473,5.24042343 20.8856473,4.82056818 C20.8856473,4.40071293 21.2256356,4.05995742 21.6462581,4.05995742 L23.5812475,4.05995742 C23.6808894,4.05995742 23.7767239,4.06451756 23.8756058,4.0751722 C23.9775277,4.0858197 24.0764024,4.10255451 24.1714841,4.12308947 C24.2597113,4.14210439 24.3517457,4.16720664 24.4407401,4.19534899 C24.5449421,4.23033873 24.6324093,4.26456126 24.7176035,4.30259824 C24.8012705,4.33986805 24.8864576,4.38246518 24.9686046,4.42962242 C25.058359,4.48286705 25.1351787,4.53154436 25.2081982,4.58402178 C25.2842579,4.6372664 25.3557573,4.69507114 25.4264968,4.75591598 C25.5017964,4.82056811 25.5702487,4.8875003 25.6349008,4.95595254 C25.6927056,5.01756459 25.7512703,5.08601683 25.8090751,5.15751634 C25.8790545,5.24650353 25.9376193,5.32865055 25.9893439,5.41536484 C26.0281337,5.47240958 26.0775711,5.5583567 26.1239755,5.64735107 C26.1688527,5.73557826 26.2084025,5.82381259 26.2433851,5.913567 C26.2753347,5.99038665 26.3080444,6.08242113 26.3354196,6.17673564 C26.364322,6.27713751 26.388657,6.37373213 26.4069191,6.46956671 C26.4236468,6.56160118 26.4388687,6.65820294 26.448749,6.7563176 C26.4586365,6.85595946 26.4632038,6.95711419 26.4632038,7.06056334 L26.4632038,28.9752693 C26.4632038,29.0779512 26.4586437,29.1798731 26.448749,29.278755 C26.4388616,29.3776296 26.4244068,29.4749914 26.4053919,29.570826 C26.389417,29.6605804 26.3643148,29.757175 26.3376996,29.8507295 C26.3080372,29.9518914 26.2753276,30.0454459 26.2380649,30.1367204 C26.2084025,30.2143072 26.1665654,30.3032944 26.1239683,30.3884815 C26.077571,30.4774759 26.0281337,30.564943 25.973369,30.64785 C25.9360992,30.7094621 25.8782945,30.7908419 25.8174425,30.8684287 C25.7527903,30.9490557 25.6919455,31.0213081 25.6272862,31.0882474 C25.5748088,31.1452922 25.5063494,31.2107043 25.435617,31.2730692 C25.3565101,31.3407686 25.2842578,31.3993334 25.208191,31.452578 C25.1306113,31.5081027 25.0507515,31.5590672 24.9685973,31.6054645 C24.8894904,31.6511017 24.8035433,31.6944517 24.714549,31.7340087 C24.632402,31.7720385 24.5373274,31.8085483 24.4407328,31.8389779 C24.3639131,31.864833 24.2703586,31.8899353 24.1737641,31.9112302 C24.0710821,31.9325324 23.9744875,31.9485001 23.8771257,31.9583875 C23.7896587,31.9690566 23.6884896,31.9736168 23.5835347,31.9736168 Z M8.39794178,7.85542536 C7.89365948,7.85542536 7.38252262,7.60214418 7.06382927,7.19293643 C6.75046325,6.79133607 6.6462541,6.29313396 6.77251828,5.79189173 L6.84249772,5.50970099 C6.97712215,4.97270902 7.09349883,4.5056965 7.16119107,4.225793 C7.32167778,3.55797672 8.17660305,2.7806311 9.03685568,2.7806311 L9.90394852,2.77911107 L10.2736064,2.7806311 L10.2751336,2.77455092 C10.3656409,2.40565306 10.5398223,1.70208703 10.6204493,1.410776 C10.8067983,0.745239785 11.6122862,0.0279861883 12.5896684,0.0279861883 L13.3936363,0.0264661525 L13.8743436,0.0279861883 C14.8737808,0.0302662601 15.6838361,0.752847211 15.8587775,1.4214235 C15.9401645,1.7249092 16.1234734,2.40946034 16.220068,2.78139114 L16.5752711,2.78215117 L17.2286398,2.78063114 C18.5133078,2.78063114 19.1841714,3.64468387 19.3248832,4.22502583 L19.7067086,5.79721191 C19.8306855,6.3083416 19.7264835,6.80882378 19.4138703,7.20586404 C19.0989771,7.60518432 18.600775,7.8539054 18.1124603,7.8539054 L17.3183799,7.85314536 C15.0684973,7.85010526 8.85735415,7.84249787 8.43977898,7.85314536 L8.39794178,7.85542536 Z M9.9039557,4.30185263 L9.03914292,4.30337266 C8.9334137,4.30717277 8.68545984,4.49960911 8.6284151,4.62054597 C8.5721304,4.86621977 8.45423365,5.33779957 8.31960204,5.87859168 L8.24886974,6.16154242 C8.235935,6.21098694 8.24354242,6.2322819 8.26407738,6.257377 C8.30362726,6.30834156 8.37208667,6.33419666 8.39870899,6.33419666 L8.39870899,7.09480743 L8.4002362,6.33419666 C8.81933141,6.32278917 15.0570968,6.33039656 17.3206742,6.33343663 L18.1132274,6.33419666 C18.1314823,6.33191659 18.1923343,6.30377424 18.2235168,6.26117711 C18.2318842,6.24976961 18.246339,6.22847462 18.2296042,6.1562151 L17.8462515,4.58555623 C17.8447315,4.58555623 17.7275948,4.30336549 17.2423274,4.30336549 L16.5745039,4.30489274 L16.0420792,4.3033727 C15.4548899,4.3033727 14.9391929,3.89796506 14.7870736,3.3176231 C14.711774,3.02402486 14.4835951,2.16529944 14.3892734,1.81237639 C14.359611,1.75305159 14.1428324,1.55072778 13.8690162,1.54996775 L13.3936291,1.54920054 L12.5896612,1.55072057 C12.3280126,1.55072057 12.1165613,1.75912456 12.0800515,1.8389915 C12.007792,2.10216014 11.8404579,2.78367117 11.7514635,3.14039433 L11.7096336,3.30848843 C11.5613144,3.91165259 11.0479047,4.30336549 10.4029034,4.30336549 L9.9039557,4.30185263 Z M14.031023,27.1026663 C14.031023,27.5438166 13.6727726,27.8807719 13.2346625,27.8807719 C12.791985,27.8807719 12.4337418,27.5438237 12.4337418,27.1026663 L12.4337418,23.7810798 L8.83833916,23.7810798 C8.56603587,23.7810798 8.31427473,23.5293115 8.31427473,23.2372404 C8.31427473,22.9406021 8.56603587,22.6888409 8.83833916,22.6888409 L12.4337418,22.6888409 L12.4337418,20.3971212 L8.83833916,20.3971212 C8.56603587,20.3971212 8.31427473,20.14536 8.31427473,19.8327469 C8.31427473,19.5566435 8.56603587,19.3048823 8.83833916,19.3048823 L12.3934319,19.3048823 L7.66167326,12.4959024 C7.43197428,12.1178771 7.51412129,11.6326097 7.89365948,11.3808486 C8.22832764,11.1290803 8.73336997,11.2325294 8.98817837,11.5702377 L13.1061254,17.5402671 C13.1281804,17.5828643 13.1905525,17.6254614 13.2339096,17.6254614 C13.2742195,17.6254614 13.3350715,17.5828643 13.3594066,17.5402671 L17.4788737,11.5702377 C17.730642,11.2332894 18.2349243,11.1290803 18.5924075,11.3808414 C18.9498979,11.6333626 19.0556199,12.1186371 18.8030987,12.4958952 L14.0949223,19.3048823 L17.62568,19.3048823 C17.9230783,19.3048823 18.1520173,19.5566507 18.1520173,19.8327469 C18.1520173,20.14536 17.9223183,20.3971212 17.62568,20.3971212 L14.0302773,20.3971212 L14.0302773,22.6888409 L17.62568,22.6888409 C17.9230783,22.6888409 18.1520173,22.9406021 18.1520173,23.2372404 C18.1520173,23.5293115 17.9223183,23.7810798 17.62568,23.7810798 L14.0302773,23.7810798 L14.031023,27.1026663 Z" id="Shape"></path>
            </g>
        </g>
    </g>
</svg>