<?xml version="1.0" encoding="UTF-8"?>
<svg width="30px" height="29px" viewBox="0 0 30 29" version="1.1" xmlns="http://www.w3.org/2000/svg" xmlns:xlink="http://www.w3.org/1999/xlink">
    <!-- Generator: Sketch 48 (47235) - http://www.bohemiancoding.com/sketch -->
    <title>news-icon</title>
    <desc>Created with Sketch.</desc>
    <defs></defs>
    <g id="01-Home" stroke="none" stroke-width="1" fill="none" fill-rule="evenodd" transform="translate(-198.000000, -106.000000)">
        <g id="news-icon" transform="translate(198.000000, 106.000000)">
            <rect id="icon_bg" x="0" y="0" width="30" height="30"></rect>
            <g id="workflow" fill="#FFFFFF" fill-rule="nonzero">
                <path d="M24.7658863,13.0434783 L23.4615385,13.0434783 C22.7424749,13.0434783 22.1571906,12.4615385 22.1571906,11.7391304 C22.1571906,11.0200669 22.7391304,10.4347826 23.4615385,10.4347826 L24.7658863,10.4347826 C26.2040134,10.4347826 27.3712375,9.26755853 27.3712375,7.82943144 C27.3712375,6.39130435 26.2040134,5.22408027 24.7658863,5.22408027 L23.4615385,5.22408027 C22.7424749,5.22408027 22.1571906,4.63879599 22.1571906,3.91973244 C22.1571906,3.2006689 22.7391304,2.61538462 23.4615385,2.61538462 L24.7658863,2.61538462 C27.6454849,2.61538462 29.9765886,4.94983278 29.9765886,7.82608696 C29.9765886,10.7023411 27.6454849,13.0434783 24.7658863,13.0434783 Z M20.2073579,28.6789298 L9.7826087,28.6789298 C9.06354515,28.6789298 8.47826087,28.0936455 8.47826087,27.3745819 L8.47826087,22.1638796 C8.47826087,21.4448161 9.06020067,20.8595318 9.7826087,20.8595318 L20.2040134,20.8595318 C20.9230769,20.8595318 21.5083612,21.4414716 21.5083612,22.1638796 L21.5083612,27.3745819 C21.5083612,28.09699 20.9264214,28.6789298 20.2073579,28.6789298 Z M17.6020067,23.4682274 L12.3879599,23.4682274 C11.6688963,23.4682274 11.083612,24.0501672 11.083612,24.7725753 C11.083612,25.4916388 11.6655518,26.0769231 12.3879599,26.0769231 L17.5986622,26.0769231 C18.3177258,26.0769231 18.90301,25.4949833 18.90301,24.7725753 C18.90301,24.0501672 18.3210702,23.4682274 17.6020067,23.4682274 Z M20.2073579,18.2575251 L9.7826087,18.2575251 C9.06354515,18.2575251 8.47826087,17.6722408 8.47826087,16.9531773 L8.47826087,11.7424749 C8.47826087,11.0234114 9.06020067,10.4381271 9.7826087,10.4381271 L20.2040134,10.4381271 C20.9230769,10.4381271 21.5083612,11.0200669 21.5083612,11.7424749 L21.5083612,16.9531773 C21.5083612,17.6722408 20.9264214,18.2575251 20.2073579,18.2575251 Z M17.6020067,13.0434783 L12.3879599,13.0434783 C11.6688963,13.0434783 11.083612,13.6254181 11.083612,14.3478261 C11.083612,15.0668896 11.6655518,15.6521739 12.3879599,15.6521739 L17.5986622,15.6521739 C18.3177258,15.6521739 18.90301,15.0702341 18.90301,14.3478261 C18.90301,13.6287625 18.3210702,13.0434783 17.6020067,13.0434783 Z M20.2073579,7.83277592 L9.7826087,7.83277592 C9.06354515,7.83277592 8.47826087,7.24749164 8.47826087,6.52842809 L8.47826087,1.32107023 C8.47826087,0.602006689 9.06020067,0.016722408 9.7826087,0.016722408 L20.2040134,0.016722408 C20.9230769,0.016722408 21.5083612,0.598662207 21.5083612,1.32107023 L21.5083612,6.53177258 C21.5083612,7.25083612 20.9264214,7.83277592 20.2073579,7.83277592 Z M17.6020067,2.62207358 L12.3879599,2.62207358 C11.6688963,2.62207358 11.083612,3.20401338 11.083612,3.9264214 C11.083612,4.64548495 11.6655518,5.23076923 12.3879599,5.23076923 L17.5986622,5.23076923 C18.3177258,5.23076923 18.90301,4.64548495 18.90301,3.9264214 C18.90301,3.20401338 18.3210702,2.62207358 17.6020067,2.62207358 Z M5.22408027,22.1638796 L6.52842809,22.1638796 C7.24749164,22.1638796 7.83277592,22.7458194 7.83277592,23.4682274 C7.83277592,24.187291 7.25083612,24.7725753 6.52842809,24.7725753 L5.22408027,24.7725753 C2.34448161,24.7725753 0.0133779264,22.4381271 0.0133779264,19.5618729 C0.0133779264,16.6822742 2.34782609,14.3511706 5.22408027,14.3511706 L6.52842809,14.3511706 C7.24749164,14.3511706 7.83277592,14.9331104 7.83277592,15.6555184 C7.83277592,16.3745819 7.25083612,16.9598662 6.52842809,16.9598662 L5.22408027,16.9598662 C3.78595318,16.9598662 2.6187291,18.1270903 2.6187291,19.5652174 C2.6187291,20.9966555 3.78595318,22.1638796 5.22408027,22.1638796 Z" id="Shape"></path>
            </g>
        </g>
    </g>
</svg>